<svg width="135" height="101" viewBox="0 0 135 101" fill="none" xmlns="http://www.w3.org/2000/svg">
<g clip-path="url(#clip0_6013_8649)">
<path d="M114.419 97.8716C114.34 97.8716 114.262 97.8716 114.194 97.8491C114.138 97.8379 112.889 97.5342 111.056 96.6906C109.369 95.9258 106.838 94.5312 104.296 92.2592C101.44 89.7061 99.1677 86.5793 97.5368 82.9802C95.5123 78.5037 94.4888 73.285 94.4888 67.4588V63.5448C94.4888 63.2748 94.6012 63.0161 94.7924 62.8249C94.9836 62.6337 95.2536 62.5438 95.5235 62.555C95.546 62.555 97.8742 62.6562 101.271 61.7902C103.262 61.2841 105.23 60.5417 107.12 59.597C109.481 58.416 111.72 56.8976 113.778 55.098C114.149 54.7719 114.711 54.7719 115.083 55.098C117.141 56.8976 119.379 58.416 121.741 59.597C123.631 60.5417 125.599 61.2841 127.59 61.7902C130.986 62.6562 133.315 62.555 133.337 62.555C133.607 62.5438 133.877 62.6337 134.068 62.8249C134.259 63.0161 134.372 63.2748 134.372 63.5448V67.4588C134.372 73.285 133.348 78.5037 131.324 82.9802C129.693 86.5793 127.421 89.7061 124.564 92.2592C122.022 94.5312 119.48 95.9258 117.804 96.6906C115.96 97.5342 114.711 97.8379 114.666 97.8491C114.588 97.8716 114.52 97.8716 114.442 97.8716H114.419ZM96.4571 64.5233V67.4588C96.4571 72.97 97.4131 77.8964 99.3026 82.1029C100.81 85.4433 102.902 88.3451 105.534 90.7183C107.884 92.8328 110.235 94.1375 111.787 94.8573C113.047 95.4422 114.003 95.7459 114.419 95.8583C114.835 95.7346 115.791 95.4309 117.051 94.8573C118.614 94.1375 120.965 92.8328 123.304 90.7183C125.936 88.3451 128.028 85.4433 129.535 82.1029C131.425 77.9076 132.381 72.9813 132.381 67.4588V64.5233C131.313 64.4783 129.479 64.3096 127.174 63.7247C125.037 63.1849 122.922 62.3975 120.897 61.3853C118.614 60.2493 116.444 58.8209 114.419 57.1338C112.395 58.8209 110.224 60.2493 107.941 61.3853C105.916 62.3975 103.802 63.1849 101.665 63.7247C99.3589 64.3096 97.5255 64.4783 96.4571 64.5233Z" fill="#FAAE32"/>
<path d="M110.921 82.5303C116.005 73.9486 121.887 68.8085 123.788 67.3127C124.069 67.0877 124.463 67.099 124.71 67.3464C124.958 67.5938 124.98 67.9987 124.755 68.2687C117.062 77.0191 113.958 83.1714 112.113 87.1642C111.821 87.794 110.921 87.8165 110.527 87.2429C108.84 84.8135 107.209 82.3166 105.837 81.0344C105.32 80.5508 104.825 80.472 104.409 80.4495C103.937 80.427 103.723 79.8309 104.071 79.516C104.836 78.8074 106.029 78.2001 107.558 78.9986C109.29 79.9097 110.91 82.519 110.91 82.519L110.921 82.5303Z" fill="#FAAE32"/>
<path d="M0.427289 55.9529C0.337311 57.1788 0.258579 58.416 0.506021 59.597C0.730967 60.7667 1.39456 61.8689 2.41807 62.4651C2.65426 62.6338 2.94669 62.7237 3.21663 62.8362C3.49781 62.9037 3.77899 63.0049 4.08267 63.0274C4.66753 63.1286 5.26364 63.0949 5.85975 63.0274C7.04072 62.87 8.19919 62.4651 9.23395 61.8689C9.76257 61.5878 10.2462 61.2391 10.7186 60.8792C11.191 60.4968 11.6521 60.1031 12.102 59.687C13.0018 58.8547 13.8903 57.9886 14.8689 57.1676C15.8361 56.3465 16.9046 55.5704 18.1531 55.0306C18.7717 54.7494 19.4353 54.5582 20.1214 54.4232C20.8074 54.322 21.5048 54.2545 22.2021 54.322C23.5968 54.4007 24.9127 54.8281 26.1162 55.3567C27.3421 55.8854 28.4444 56.5602 29.5016 57.2575C31.6386 58.6635 33.5057 60.0919 35.6089 60.9467C37.6784 61.8127 39.8492 62.0714 41.5363 61.0929C42.3911 60.6205 43.1784 59.8669 43.9432 58.9896C44.708 58.1123 45.4391 57.1113 46.2939 56.1328C47.1374 55.1543 48.1497 54.1533 49.4881 53.4672C50.8266 52.8148 52.4012 52.5674 53.8521 52.9161C55.3143 53.2422 56.5065 54.0183 57.53 54.8394C58.5535 55.6717 59.4308 56.5827 60.2968 57.4825C61.1516 58.3823 61.9839 59.2708 62.8725 60.0694C63.7497 60.8679 64.6945 61.5878 65.7293 62.0489C66.764 62.51 67.9 62.645 69.0022 62.3976C70.1157 62.1726 71.2067 61.6328 72.309 61.0704C73.4112 60.508 74.5584 59.9119 75.8856 59.6645C76.538 59.5295 77.2353 59.552 77.9101 59.6757C78.585 59.8107 79.1923 60.0694 79.7659 60.3618C80.9132 60.9467 81.9142 61.7002 82.9602 62.2289C83.4776 62.4875 84.0174 62.7012 84.5461 62.7462C85.0747 62.8137 85.5808 62.6788 86.0307 62.4313C86.9305 61.9477 87.3579 60.8454 87.5154 59.7207C87.6616 58.5735 87.5716 57.4038 87.4029 56.1666L86.4806 48.8108L85.5246 41.4663C85.1872 39.0481 84.7035 36.7762 83.2076 35.3477C81.768 33.8743 79.5747 33.1545 77.2803 32.8621C74.9746 32.5472 72.5901 32.6146 70.0932 32.6596L55.258 32.8621C50.3092 32.9408 45.3716 32.9296 40.4228 32.9521C35.474 32.9071 30.5364 32.9296 25.5876 32.8396L21.8759 32.7834L18.1643 32.6821L14.4527 32.5584C13.193 32.5134 12.0458 32.4684 10.8648 32.5472C8.54786 32.7271 6.25341 33.3795 4.60005 34.9428C3.76775 35.7189 3.10415 36.6862 2.60927 37.7547C2.11439 38.8232 1.77697 39.9929 1.52953 41.1851C0.584752 45.9877 0.910924 50.9928 0.472279 55.9304L0.427289 55.9529ZM0.112364 55.9304C0.281074 53.4672 0.292321 51.004 0.303569 48.5296C0.303569 46.0552 0.326063 43.5695 0.652236 41.0726C0.820946 39.8242 1.09088 38.5757 1.54077 37.361C1.99067 36.1463 2.64301 34.9766 3.5428 33.9756C4.44259 32.9746 5.57857 32.1872 6.79328 31.6361C8.00799 31.085 9.30143 30.7476 10.5836 30.5339C11.8658 30.3314 13.193 30.2752 14.4077 30.219L18.1193 30.0727L21.831 29.949L25.5426 29.8591C30.4914 29.7353 35.429 29.7241 40.3778 29.6454C45.3266 29.6341 50.2642 29.5891 55.213 29.6341L70.0483 29.7466C72.4889 29.7691 75.0646 29.7241 77.6627 30.1515C78.9561 30.3652 80.2721 30.6914 81.543 31.2312C82.814 31.7711 84.0399 32.5697 84.996 33.6494C85.2321 33.9193 85.4683 34.1893 85.6708 34.4929C85.8845 34.7854 86.0757 35.0891 86.2444 35.4152C86.5706 36.0563 86.818 36.7087 87.0092 37.3723C87.3691 38.6882 87.4929 39.9929 87.6053 41.2301L88.1452 48.6533L88.7076 56.0653C88.8201 57.2913 88.8538 58.6072 88.6288 59.9119C88.5164 60.5643 88.3364 61.2278 87.999 61.8465C87.6728 62.4651 87.1554 63.0387 86.5031 63.3761C85.862 63.7023 85.1084 63.871 84.3998 63.7585C83.6913 63.6685 83.0614 63.4098 82.4878 63.1061C81.3293 62.51 80.3508 61.7452 79.3048 61.2054C78.7874 60.9354 78.2476 60.688 77.6964 60.598C77.1453 60.508 76.5942 60.4855 76.0318 60.6092C74.9183 60.8229 73.8386 61.3853 72.7476 61.9589C71.6566 62.5213 70.5431 63.1736 69.2272 63.4886C67.9225 63.8372 66.4828 63.7023 65.2344 63.2299C63.9747 62.7575 62.8725 62.0039 61.8827 61.2054C60.8817 60.4068 59.9706 59.5407 59.0709 58.7084C58.1711 57.8761 57.2713 57.0663 56.3265 56.3915C55.393 55.7279 54.4032 55.1993 53.4135 55.0531C52.4349 54.8731 51.4452 55.1093 50.5904 55.5817C49.7356 56.0766 48.9933 56.8976 48.2622 57.7974C47.5311 58.7084 46.8225 59.7207 46.0015 60.7442C45.1917 61.7565 44.1906 62.78 42.8747 63.5223C41.57 64.2646 40.0179 64.602 38.567 64.5121C37.1048 64.4446 35.7551 64.0059 34.5292 63.4661C33.292 62.9262 32.156 62.2514 31.0875 61.5203C30.0078 60.7667 29.0742 60.0019 28.0957 59.2933C26.1499 57.8986 24.1592 56.5827 21.9884 56.2678C20.9087 56.0991 19.8177 56.2115 18.7604 56.5827C17.7032 56.9426 16.6797 57.5612 15.7012 58.2473C14.7226 58.9446 13.7666 59.732 12.7881 60.4968C12.3045 60.8792 11.7983 61.2616 11.281 61.6328C10.7411 61.9927 10.19 62.3301 9.60511 62.5888C8.44663 63.1399 7.20943 63.4886 5.93848 63.6235C5.29738 63.6685 4.65628 63.6685 4.01519 63.5448C3.70026 63.4998 3.38534 63.3873 3.08166 63.2861C2.78923 63.1399 2.48555 63.0387 2.21561 62.8362C1.11338 62.1389 0.393547 60.9354 0.179848 59.687C-0.0675932 58.4385 0.0336327 57.1788 0.146106 55.9416L0.112364 55.9304Z" fill="#FAAE32"/>
<path d="M4.41991 62.8925C5.106 73.0713 5.27471 83.3064 4.92604 93.5414L1.82178 93.2827C3.19395 83.2276 4.06 73.0825 4.41991 62.8925Z" fill="#FAAE32"/>
<path d="M82.2631 62.8925L84.1526 95.5997L81.0483 95.6334L82.2631 62.8925Z" fill="#FAAE32"/>
<path d="M85.3669 97.4443C71.5214 97.4331 57.3948 97.4106 43.2794 97.3881C29.164 97.3656 15.0486 97.3431 1.19189 97.3318V95.1049C15.0486 95.1161 29.164 95.1386 43.2794 95.1611C57.3948 95.1836 71.5102 95.2061 85.3669 95.2173V97.4443Z" fill="#FAAE32"/>
<path d="M1.72074 60.8117C3.58779 60.9917 5.39861 60.4068 6.96199 59.507C8.55911 58.6297 9.95378 57.4263 11.4159 56.2678C12.8668 55.0981 14.4302 53.9621 16.2523 53.231C18.0631 52.5112 20.0089 52.1963 21.9547 52.275C23.8892 52.365 25.8238 52.8598 27.5446 53.7371C29.2542 54.6144 30.7838 55.6942 32.336 56.6614C33.112 57.1338 33.9218 57.5725 34.7429 57.9099C35.5639 58.2473 36.4525 58.4723 37.341 58.5735C38.2296 58.686 39.1519 58.641 40.0179 58.416C40.8952 58.1798 41.705 57.7187 42.3686 57.0551C41.8175 57.8087 41.0189 58.3935 40.1191 58.7197C39.2193 59.0459 38.2521 59.1921 37.296 59.1696C36.34 59.1358 35.384 58.9559 34.4617 58.6635C33.5394 58.3485 32.6846 57.9324 31.8523 57.4825C30.1877 56.594 28.6581 55.5367 27.0272 54.7831C25.4189 54.0071 23.6755 53.5684 21.8984 53.5122C20.1214 53.4222 18.333 53.7034 16.6684 54.322C14.9926 54.9181 13.4967 55.9641 11.9895 57.0326C10.4937 58.1123 8.96402 59.2483 7.22068 60.0356C5.49984 60.7892 3.53156 61.2616 1.69824 60.8005L1.72074 60.8117Z" fill="#FAAE32"/>
<path d="M62.1978 56.6501C63.6262 57.8424 65.1221 58.9221 66.7754 59.5407C68.4175 60.1368 70.2171 60.2943 71.7805 59.6982C72.5903 59.417 73.3889 58.9671 74.2774 58.5959C75.1772 58.236 76.1782 57.9886 77.1567 57.9773C79.1137 57.9098 81.0708 58.5734 82.4542 59.8444C80.7784 59.0233 78.9563 58.7309 77.2242 58.9446C76.3582 59.0683 75.5371 59.2933 74.7498 59.6757C73.9512 60.0468 73.1414 60.5192 72.1966 60.8679C71.2406 61.2053 70.2059 61.329 69.2161 61.2391C68.2263 61.1378 67.2591 60.8679 66.3818 60.4292C64.6272 59.5632 63.2325 58.191 62.1865 56.6501H62.1978Z" fill="#FAAE32"/>
<path d="M11.2249 89.8411C10.9325 88.4014 10.8313 86.8268 11.3599 85.2634C11.6298 84.4986 12.0685 83.745 12.7995 83.1826C13.5644 82.5978 14.4866 82.4291 15.2402 82.3841C16.8148 82.2941 18.412 82.6428 19.7954 83.3176C20.4927 83.6663 21.1338 84.1387 21.6399 84.7573C22.1236 85.3759 22.506 86.0845 22.7534 86.8493C23.2596 88.3789 23.1133 90.1672 22.2923 91.6519C21.4825 93.159 20.0428 94.3063 18.367 94.7674C17.5234 94.9698 16.6574 95.0036 15.8138 94.8686C14.9703 94.7112 14.1942 94.3175 13.5419 93.8226C12.8783 93.3052 12.4059 92.6304 12.0235 91.9668C11.6411 91.2807 11.4386 90.5609 11.2362 89.8411H11.2249ZM11.4049 89.7961C11.6073 90.4934 11.911 91.1682 12.4171 91.6631C12.912 92.1693 13.5194 92.5292 14.138 92.7429C15.3977 93.1478 16.6574 93.1703 17.8271 92.8441C18.4007 92.6529 18.9518 92.3942 19.458 92.0568C19.9528 91.6856 20.414 91.2807 20.7514 90.7633C21.0888 90.246 21.3588 89.6611 21.5162 89.0313C21.6849 88.4126 21.7862 87.7378 21.7187 87.0742C21.6737 86.4106 21.4712 85.7133 21.1001 85.1509C20.7289 84.5886 20.1665 84.1387 19.5254 83.8912C18.2095 83.3738 16.7474 83.6438 15.4314 83.9475C14.7453 84.1049 14.183 84.2624 13.7331 84.5548C13.2719 84.8585 12.7995 85.2971 12.3834 85.837C11.5398 86.8718 11.0225 88.3902 11.3824 89.8186L11.4049 89.7961Z" fill="#FAAE32"/>
<path d="M35.4631 87.018C35.5194 86.2531 35.6318 85.4996 35.8455 84.7348C36.0705 83.9812 36.4191 83.1939 37.0827 82.5753C37.7351 81.9454 38.6461 81.608 39.4784 81.5293C40.3107 81.4393 41.1543 81.5068 41.9528 81.743C43.5612 82.2154 44.9334 83.3176 45.7769 84.6785C46.598 86.0507 46.9804 87.6028 47.0029 89.2224C47.0029 90.0323 46.8792 90.8758 46.5192 91.6744C46.3505 92.0793 46.1031 92.4617 45.8107 92.8103C45.507 93.159 45.1583 93.4514 44.7871 93.6876C44.416 93.9351 44.0111 94.1263 43.6062 94.2837C43.19 94.4412 42.7739 94.5424 42.4027 94.6212C41.6267 94.8011 40.8056 94.9136 39.9171 94.8574C39.0398 94.7899 38.0612 94.4862 37.3302 93.8676C36.959 93.5639 36.6778 93.1815 36.4529 92.7991C36.2392 92.4279 36.0817 92.0455 35.9467 91.6519C35.4519 90.0772 35.4181 88.5139 35.4856 86.9955L35.4631 87.018ZM35.6431 87.0292C35.5531 88.5251 36.1604 89.9985 37.0265 91.112C37.9263 92.3155 38.7698 92.8441 40.007 92.8891C40.6256 92.9116 41.3005 92.8328 41.9978 92.7204C42.369 92.6641 42.6839 92.6079 42.9763 92.5179C43.28 92.4279 43.5724 92.3267 43.8424 92.1805C44.3935 91.8993 44.8096 91.5057 45.1696 90.9658C45.5182 90.4372 45.7994 89.7961 45.9569 89.11C46.2718 87.749 46.0918 86.1632 45.2483 85.0047C44.8209 84.4423 44.236 84.0262 43.5949 83.7562C42.9538 83.4863 42.279 83.3401 41.6042 83.2614C40.9293 83.1714 40.2545 83.1601 39.5909 83.1826C38.9273 83.2164 38.3199 83.2726 37.7576 83.5425C37.184 83.8125 36.6328 84.2961 36.2729 84.926C35.8905 85.5446 35.6881 86.2869 35.6431 87.0292Z" fill="#FAAE32"/>
<path d="M58.4302 89.1887C58.4639 87.6141 58.6214 85.972 59.3862 84.4086C59.7799 83.6438 60.3422 82.924 61.0958 82.4066C61.8269 81.878 62.7491 81.5743 63.6489 81.5181C65.4823 81.4281 67.1131 82.2716 68.3391 83.3514C69.5988 84.4311 70.4198 85.9495 70.7572 87.6141C71.0947 89.2787 70.8022 91.157 69.7337 92.6417C69.2164 93.4065 68.4291 94.0476 67.608 94.4412C66.7757 94.8574 65.8759 95.0486 65.0099 95.1048C64.1776 95.1611 63.3115 95.1498 62.4455 94.9811C61.5907 94.8012 60.7134 94.4412 60.016 93.8226C59.3187 93.2153 58.8913 92.383 58.6889 91.5844C58.4864 90.7746 58.4414 89.9761 58.4302 89.1775V89.1887ZM58.6101 89.1887C58.6326 89.9648 58.7788 90.7521 59.15 91.4045C59.5099 92.0681 60.0835 92.5404 60.6909 92.7991C61.3095 93.0691 61.9843 93.1478 62.6817 93.1928C63.379 93.2378 64.0988 93.2153 64.8187 93.1253C66.2021 92.9791 67.4843 92.5629 68.3166 91.5732C69.1601 90.5497 69.6663 89.1662 69.7225 87.7041C69.7675 86.2532 69.1601 84.6898 67.9342 83.8125C66.7307 82.9015 65.1111 82.7665 63.8176 83.0589C62.513 83.3401 61.377 84.0487 60.3535 85.0835C59.33 86.1182 58.5876 87.6254 58.6101 89.1887Z" fill="#FAAE32"/>
<path d="M18.7379 86.1631C18.9291 86.4443 19.0528 86.7704 19.1203 87.1079C19.1428 87.1866 19.1428 87.2878 19.1653 87.3441C19.1991 87.4003 19.2103 87.3891 19.2778 87.3553C19.4015 87.2766 19.5252 87.1641 19.6152 87.0404C19.9639 86.5343 20.0201 85.8482 19.9076 85.3195C19.8402 85.0496 19.7277 84.8809 19.4802 84.7572C19.2328 84.6447 18.8841 84.566 18.6029 84.566C18.468 84.5772 18.3555 84.6335 18.3105 84.7684C18.2655 84.9034 18.2768 85.0721 18.3105 85.2296C18.3892 85.5557 18.558 85.8594 18.7267 86.1518L18.7379 86.1631ZM18.7379 86.1631C18.558 85.8819 18.378 85.5895 18.2318 85.2746C18.1643 85.1171 18.0968 84.9371 18.1306 84.7459C18.1418 84.5322 18.333 84.341 18.5355 84.2848C18.9291 84.1723 19.2778 84.1723 19.6714 84.2735C19.8626 84.3298 20.0763 84.4423 20.2226 84.611C20.3688 84.7797 20.4588 84.9821 20.515 85.1846C20.6725 85.9719 20.425 86.7704 19.8401 87.2653C19.6939 87.3891 19.5365 87.479 19.3453 87.5353C19.3003 87.5465 19.2328 87.5578 19.1653 87.5353C19.0978 87.5128 19.0528 87.4453 19.0416 87.3891C19.0191 87.2766 19.0416 87.2091 19.0416 87.1191C19.0416 86.7817 18.9179 86.4555 18.7492 86.1631H18.7379Z" fill="#FAAE32"/>
<path d="M41.9409 85.1059C42.0872 85.3983 42.3233 85.6121 42.5708 85.8033C42.8182 85.9945 43.0882 86.1632 43.3694 86.3206C43.5043 86.3994 43.6505 86.4668 43.7855 86.5343C43.8642 86.5906 43.9092 86.5681 43.808 86.5568C43.7518 86.5793 43.808 86.5343 43.8192 86.4781C43.9205 86.2644 43.943 86.0057 43.898 85.7695C43.853 85.5221 43.718 85.2859 43.5493 85.0609C43.4031 84.8697 43.1444 84.6785 42.8857 84.5323C42.627 84.3973 42.3233 84.2511 42.0309 84.3074C41.8847 84.3411 41.7947 84.4873 41.806 84.6448C41.8172 84.8022 41.8735 84.9485 41.9297 85.0947L41.9409 85.1059ZM41.9409 85.1059C41.8735 84.9597 41.8172 84.8135 41.7947 84.656C41.7722 84.4986 41.8397 84.2961 42.0084 84.2399C42.3346 84.1162 42.6833 84.1836 43.0094 84.2399C43.3356 84.3299 43.6618 84.4423 43.9542 84.701C44.2241 84.9372 44.4266 85.2634 44.5166 85.6458C44.5953 86.0282 44.5166 86.4444 44.2804 86.7705C44.2129 86.838 44.1792 86.9392 43.9655 87.018C43.853 87.0517 43.7293 87.018 43.673 86.973C43.6055 86.9392 43.5831 86.9055 43.5493 86.883C43.4256 86.7818 43.3019 86.6693 43.1894 86.5568C42.9532 86.3319 42.7283 86.0957 42.5146 85.8595C42.3009 85.6233 42.0759 85.3871 41.9409 85.0947V85.1059Z" fill="#FAAE32"/>
<path d="M67.0113 86.4781C67.1575 86.5568 67.315 86.613 67.4837 86.6243C67.6524 86.6243 67.7986 86.5456 67.8886 86.4106C68.1023 86.1519 68.1248 85.8257 67.9785 85.567C67.6974 85.0609 67.1013 84.7347 66.5726 84.5323C66.2914 84.4311 66.044 84.4086 65.8191 84.476C65.7178 84.5098 65.6953 84.521 65.6616 84.6223C65.6391 84.7122 65.6841 84.8697 65.7403 85.0159C65.999 85.5895 66.4714 86.1182 67.0225 86.4893L67.0113 86.4781ZM67.0113 86.4781C66.4602 86.1069 65.9203 85.7132 65.4591 85.1734C65.3579 85.0159 65.2342 84.8697 65.2117 84.6335C65.1667 84.3973 65.3579 84.0824 65.5716 84.0037C65.7741 83.9024 65.9653 83.8574 66.179 83.8462C66.3814 83.8462 66.5726 83.8912 66.7526 83.9474C67.4499 84.2061 68.0685 84.7235 68.2597 85.4658C68.3497 85.8482 68.2035 86.2419 67.9336 86.4668C67.8323 86.6018 67.6299 86.6693 67.4724 86.6468C67.3037 86.6355 67.1462 86.568 67 86.4781H67.0113Z" fill="#FAAE32"/>
<path d="M29.9289 30.9501H29.1191C29.1416 24.6628 29.0404 18.2968 28.8267 12.0208C28.8267 11.9646 28.8267 11.9083 28.8154 11.8858C28.7929 11.8858 28.7704 11.8858 28.7254 11.8858C28.2643 11.8633 27.8032 11.9083 27.3645 12.0208C27.5107 18.2518 27.522 24.5503 27.387 30.7588L26.5772 30.7364C26.7122 24.4378 26.7009 18.0381 26.5435 11.7284V11.4247L26.8246 11.3347C27.4545 11.1323 28.1068 11.0423 28.7704 11.076C28.8941 11.076 29.1528 11.0985 29.3553 11.2785C29.614 11.5034 29.6252 11.8408 29.6252 11.9983C29.8502 18.2856 29.9514 24.6628 29.9289 30.9613V30.9501Z" fill="#FAAE32"/>
<path d="M27.8822 11.3347C27.9947 9.52386 27.9047 7.70179 27.6123 5.90222C28.0397 7.6793 28.2759 9.51261 28.2871 11.3459H27.8822V11.3347Z" fill="#FAAE32"/>
<path d="M26.2175 8.17423C25.8351 7.6681 25.5876 7.0495 25.4864 6.39716C25.3739 5.73356 25.4527 5.04748 25.6439 4.42887C25.8351 3.81027 26.105 3.23666 26.4087 2.67429C26.7124 2.11192 27.0273 1.56081 27.3085 0.998439L27.3984 0.818481L27.5222 0.987191C28.0958 1.7745 28.7031 2.53932 29.2205 3.38287C29.4792 3.81027 29.6929 4.24892 29.8841 4.71006C30.0753 5.1712 30.2553 5.65483 30.334 6.18346C30.4127 6.71208 30.379 7.29694 30.1428 7.81432C29.9291 8.34294 29.5129 8.79284 28.9843 9.01778C28.4669 9.25398 27.8821 9.26522 27.3984 9.07402C26.9036 8.89406 26.5099 8.56789 26.2175 8.18548V8.17423ZM26.285 8.12924C26.5774 8.50041 27.016 8.7591 27.4659 8.80408C27.9158 8.84907 28.3432 8.69161 28.6694 8.44417C29.333 7.96053 29.6029 7.13948 29.4905 6.29593C29.4005 5.44113 29.0181 4.5301 28.6806 3.66406C28.3432 2.77552 27.9158 1.90947 27.3197 1.14465L27.5334 1.12216C27.2635 1.68453 27.061 2.28063 26.8923 2.88799C26.7236 3.4841 26.5324 4.09145 26.3412 4.66507C26.15 5.23868 25.9475 5.80105 25.8688 6.39716C25.7901 6.99326 25.9026 7.64561 26.285 8.14049V8.12924Z" fill="#FAAE32"/>
<path d="M27.1173 7.0045C27.0611 6.83579 27.0611 6.65584 27.0386 6.47588C27.0386 6.29592 27.0161 6.11597 27.0161 5.94726C27.0161 5.59859 27.0948 5.24992 27.1848 4.9125L27.2298 4.73254L27.3423 4.82252C27.646 5.06996 27.9721 5.27242 28.2758 5.54235C28.5795 5.81229 28.8157 6.20594 28.8044 6.66708C28.8044 6.89203 28.7482 7.10573 28.6357 7.30818C28.5345 7.49939 28.3208 7.71309 28.0621 7.74683C27.8034 7.78057 27.5785 7.65685 27.4323 7.52188C27.2748 7.37567 27.1623 7.20696 27.1061 7.01575L27.1173 7.0045ZM27.1623 6.99326C27.2748 7.36442 27.7697 7.49939 27.9946 7.37567C28.2308 7.29693 28.3658 6.95952 28.4108 6.63334C28.4445 6.31842 28.3321 5.96975 28.1408 5.66607C27.9384 5.35115 27.6122 5.13745 27.2523 5.01373L27.421 4.92375C27.421 5.27242 27.4323 5.63233 27.3423 5.96975C27.2636 6.30717 27.0723 6.64459 27.1623 6.98201V6.99326Z" fill="#FAAE32"/>
<path d="M27.1512 16.7221L26.9263 16.3847C27.7811 15.8111 28.5346 15.0688 29.1082 14.214L29.4457 14.4389C28.8496 15.3387 28.051 16.126 27.1512 16.7221Z" fill="#FAAE32"/>
<path d="M27.4095 19.0391L27.1958 18.6904C27.9606 18.218 28.5455 17.5095 29.1078 16.8121L29.4228 17.0708C28.8379 17.7907 28.2306 18.533 27.4095 19.0391Z" fill="#FAAE32"/>
<path d="M27.4212 20.805L27.2412 20.4451C28.0285 20.0627 28.7371 19.5566 29.3445 18.938L29.6256 19.2192C28.9733 19.8715 28.231 20.4001 27.4099 20.805H27.4212Z" fill="#FAAE32"/>
<path d="M27.2636 23.4143L27.0161 23.0994L28.467 21.9634C28.7032 21.7722 28.9507 21.581 29.1419 21.3561L29.4568 21.6148C29.2431 21.8735 28.9731 22.0872 28.7145 22.2896L27.2636 23.4256V23.4143Z" fill="#FAAE32"/>
<path d="M27.2073 25.4726L27.0498 25.1015C27.9496 24.7303 28.7594 24.0892 29.3105 23.2906L29.6367 23.5268C29.0293 24.3816 28.1633 25.079 27.196 25.4726H27.2073Z" fill="#FAAE32"/>
<path d="M27.3196 27.2272L27.1621 26.856C27.9269 26.5298 28.658 26.1024 29.3216 25.5963L29.569 25.9112C28.883 26.4399 28.1294 26.8898 27.3308 27.2272H27.3196Z" fill="#FAAE32"/>
<path d="M27.2635 29.3079L27.0835 28.948C27.8933 28.5319 28.6694 28.037 29.378 27.4634L29.6366 27.7783C28.9056 28.3632 28.107 28.8805 27.2747 29.3079H27.2635Z" fill="#FAAE32"/>
<path d="M27.1174 30.7138L26.9712 30.3427C27.8147 30.0053 28.6583 29.6116 29.4681 29.1842L29.6593 29.5441C28.8382 29.9828 27.9835 30.3764 27.1174 30.7251V30.7138Z" fill="#FAAE32"/>
<path d="M27.0496 14.2591L26.8921 13.8879C27.6794 13.5617 28.3992 13.0668 28.9841 12.4482L29.2765 12.7294C28.6579 13.393 27.8819 13.9216 27.0496 14.2703V14.2591Z" fill="#FAAE32"/>
<path d="M39.9953 30.9501H39.1855C39.208 24.674 39.1068 18.2968 38.8818 12.0208C38.8818 11.9646 38.8818 11.9083 38.8706 11.8858C38.8481 11.8858 38.8256 11.8858 38.7806 11.8858C38.3195 11.8633 37.8583 11.9083 37.4197 12.0208C37.5659 18.2406 37.5772 24.5391 37.4422 30.7588L36.6324 30.7364C36.7673 24.4266 36.7561 18.0269 36.5986 11.7284V11.4247L36.8798 11.3347C37.5097 11.1323 38.162 11.0423 38.8256 11.076C38.9493 11.076 39.208 11.0985 39.4105 11.2785C39.6692 11.5034 39.6804 11.8408 39.6804 11.9983C39.9053 18.2968 40.0066 24.674 39.9841 30.9613L39.9953 30.9501Z" fill="#FAAE32"/>
<path d="M37.9482 11.3346C38.072 9.41135 37.9145 7.45432 38.0832 5.51978C38.0607 7.46556 38.3419 9.38886 38.3531 11.3459H37.9482V11.3346Z" fill="#FAAE32"/>
<path d="M36.3286 8.1517C35.9687 7.55559 35.8 6.85826 35.7438 6.13843C35.7213 5.77852 35.7325 5.4186 35.7888 5.05869C35.8225 4.87873 35.8562 4.69877 35.9125 4.53006C35.9687 4.36135 36.0137 4.20389 36.0812 4.03518C36.3174 3.38284 36.6323 2.77548 36.9697 2.16812C37.3071 1.56077 37.6333 0.96466 37.9145 0.33481L38.0157 0.109863L38.1395 0.33481C38.3756 0.773456 38.6343 1.20085 38.9043 1.62825L39.5904 2.98918C39.8041 3.43907 39.984 3.91146 40.1415 4.40634C40.2989 4.90123 40.4452 5.40735 40.4789 5.95847C40.5014 6.52084 40.4114 7.08321 40.1977 7.58934C39.9953 8.10671 39.6578 8.59035 39.1517 8.90527C38.6456 9.2202 38.0045 9.26519 37.5096 9.07398C37.0035 8.91652 36.5648 8.5791 36.3061 8.14046L36.3286 8.1517ZM36.3961 8.10671C36.6548 8.52287 37.1159 8.7928 37.5883 8.8153C38.0607 8.87153 38.4881 8.68033 38.7805 8.3879C39.3767 7.80304 39.6466 6.84701 39.6353 5.99222C39.6241 5.09243 39.2754 4.14765 39.0055 3.20288L38.5556 1.79696C38.3532 1.33582 38.1507 0.885929 37.9145 0.447283H38.1395C37.8358 1.05464 37.6108 1.70698 37.4084 2.35933C37.2059 3.01167 37.0147 3.66402 36.7673 4.29387L36.5761 4.76626C36.5198 4.91247 36.4524 5.05869 36.4074 5.21615C36.3061 5.51983 36.2049 5.83475 36.1374 6.16093C36.0025 6.80202 36.0362 7.52185 36.3961 8.10671Z" fill="#FAAE32"/>
<path d="M37.3183 6.95947C37.2395 6.73452 37.2283 6.48708 37.2395 6.23964C37.2508 5.9922 37.2845 5.75601 37.3633 5.53106C37.5095 5.06992 37.8356 4.69876 38.0831 4.3051L38.1506 4.19263L38.1956 4.3051C38.353 4.66501 38.5667 5.00243 38.7354 5.36235C38.9041 5.73351 38.9829 6.14966 38.9716 6.57706C38.9716 6.79076 38.9266 7.00446 38.8254 7.21816C38.7354 7.42061 38.5442 7.64556 38.2743 7.69055C38.0044 7.74678 37.7794 7.61181 37.6332 7.4656C37.487 7.30814 37.3745 7.13943 37.307 6.94822L37.3183 6.95947ZM37.352 6.93698C37.4757 7.29689 37.9481 7.51059 38.1843 7.36437C38.4205 7.24065 38.5217 6.90323 38.5555 6.54332C38.6005 6.1834 38.5555 5.81224 38.4767 5.44108C38.4093 5.06992 38.2743 4.69876 38.0831 4.35009H38.1956C37.9931 4.77749 37.8694 5.22738 37.6894 5.63228C37.6107 5.84598 37.487 6.04844 37.4082 6.25089C37.3295 6.46459 37.2733 6.70078 37.352 6.91448V6.93698Z" fill="#FAAE32"/>
<path d="M37.2171 16.7221L36.9922 16.3847C37.847 15.8111 38.6006 15.0688 39.1742 14.214L39.5116 14.4389C38.9155 15.3387 38.1169 16.126 37.2171 16.7221Z" fill="#FAAE32"/>
<path d="M37.4759 19.0391L37.2622 18.6904C38.027 18.218 38.6119 17.5095 39.1743 16.8121L39.4892 17.0708C38.9268 17.7569 38.297 18.533 37.4759 19.0391Z" fill="#FAAE32"/>
<path d="M37.4871 20.8049L37.3071 20.445C38.0944 20.0626 38.803 19.5565 39.4104 18.9379L39.6916 19.219C39.0392 19.8714 38.2969 20.4 37.4758 20.8049H37.4871Z" fill="#FAAE32"/>
<path d="M37.3295 23.4143L37.082 23.0994L38.5329 21.9634C38.7691 21.7722 39.0166 21.581 39.219 21.3561L39.5339 21.6148C39.3202 21.8735 39.0503 22.0872 38.7916 22.2784L37.3407 23.4143H37.3295Z" fill="#FAAE32"/>
<path d="M37.2844 25.4726L37.127 25.1015C38.0267 24.7303 38.8365 24.0892 39.3877 23.2906L39.7138 23.5268C39.1065 24.3816 38.2404 25.079 37.2732 25.4726H37.2844Z" fill="#FAAE32"/>
<path d="M37.386 27.2272L37.2285 26.856C37.9933 26.5298 38.7244 26.1024 39.388 25.5963L39.6354 25.9112C38.9494 26.4399 38.1958 26.8898 37.3972 27.2272H37.386Z" fill="#FAAE32"/>
<path d="M37.3299 29.3079L37.1499 28.948C37.9597 28.5319 38.7358 28.037 39.4444 27.4634L39.703 27.7783C38.972 28.3632 38.1734 28.8805 37.3411 29.3079H37.3299Z" fill="#FAAE32"/>
<path d="M37.1946 30.7138L37.0483 30.3427C37.8919 30.0053 38.7354 29.6116 39.5452 29.1842L39.7365 29.5441C38.9154 29.9828 38.0606 30.3764 37.1946 30.7251V30.7138Z" fill="#FAAE32"/>
<path d="M37.116 14.2591L36.9585 13.8879C37.7458 13.5617 38.4656 13.0668 39.0505 12.4482L39.3429 12.7294C38.7243 13.393 37.9483 13.9216 37.116 14.2703V14.2591Z" fill="#FAAE32"/>
<path d="M50.073 30.9501H49.2632C49.2856 24.674 49.1844 18.2968 48.9595 12.0208C48.9595 11.9646 48.9595 11.9083 48.9482 11.8858C48.9257 11.8858 48.9032 11.8858 48.8582 11.8858C48.3971 11.8633 47.936 11.9083 47.4973 12.0208C47.6435 18.2406 47.6548 24.5391 47.5198 30.7588L46.71 30.7364C46.845 24.4266 46.8337 18.0269 46.6763 11.7284V11.4247L46.9575 11.3347C47.5873 11.1323 48.2396 11.0423 48.9032 11.076C49.027 11.076 49.2856 11.0985 49.4881 11.2785C49.7468 11.5034 49.758 11.8408 49.758 11.9983C49.983 18.2968 50.0842 24.674 50.0617 30.9613L50.073 30.9501Z" fill="#FAAE32"/>
<path d="M48.0259 11.3347C48.1496 9.4564 48.0146 7.54435 48.1271 5.64355C48.1384 7.54435 48.4083 9.42266 48.4308 11.3459H48.0259V11.3347Z" fill="#FAAE32"/>
<path d="M46.4849 8.09542C46.305 7.76925 46.1925 7.39809 46.1138 7.02693C46.0238 6.65577 45.9676 6.27336 45.9451 5.89095C45.9001 5.11488 46.0575 4.32757 46.3725 3.61899C46.6874 2.91041 47.1823 2.28056 47.7334 1.75193C48.2958 1.22331 48.9031 0.773413 49.5667 0.402251L49.7579 0.301025V0.525972C49.7804 1.49324 49.8929 2.44927 50.0728 3.3603C50.1628 3.81019 50.2865 4.26009 50.4215 4.73247C50.5452 5.20486 50.6914 5.69974 50.7139 6.22837C50.7252 6.48706 50.7139 6.76824 50.6577 7.04942C50.5902 7.33061 50.4777 7.60054 50.3428 7.83674C50.0728 8.30912 49.6679 8.71403 49.1618 8.95022C48.6557 9.17517 48.0821 9.20891 47.5872 9.05145C47.0923 8.88274 46.6986 8.51158 46.4737 8.08418L46.4849 8.09542ZM46.5524 8.06168C46.7886 8.46659 47.2048 8.78151 47.6547 8.81525C48.1045 8.84899 48.5432 8.69153 48.8694 8.43284C49.1955 8.17416 49.443 7.82549 49.6454 7.45433C49.8366 7.08316 49.8929 6.72325 49.8704 6.27336C49.8479 5.40731 49.5105 4.47378 49.4092 3.46152C49.3193 2.46051 49.4542 1.48199 49.4992 0.514725L49.6904 0.638445C49.0381 0.942123 48.4532 1.41451 48.0371 2.01062C47.6097 2.59548 47.3172 3.24783 47.0361 3.90017C46.7774 4.55252 46.5299 5.21611 46.3725 5.92469C46.2937 6.27336 46.26 6.64452 46.2825 7.00443C46.305 7.36435 46.3612 7.73551 46.5524 8.05043V8.06168Z" fill="#FAAE32"/>
<path d="M47.2833 6.99316C47.2496 6.75696 47.2158 6.50952 47.2158 6.25083C47.2158 5.99215 47.2496 5.73346 47.3395 5.49726C47.5195 5.01363 47.9019 4.66496 48.1831 4.2713L48.2731 4.14758L48.2956 4.2938C48.3518 4.67621 48.543 5.03612 48.7117 5.39604C48.8804 5.7672 49.0041 6.1721 49.0041 6.61075C49.0041 6.82445 48.9592 7.07189 48.8354 7.27434C48.7005 7.48804 48.498 7.6455 48.2506 7.69049C47.9919 7.72423 47.7669 7.63426 47.5982 7.49929C47.4295 7.36432 47.2946 7.18436 47.2833 6.97066V6.99316ZM47.3283 6.99316C47.3845 7.40931 47.9244 7.52178 48.1718 7.38681C48.2956 7.31933 48.4193 7.20686 48.4868 7.08314C48.5543 6.94817 48.588 6.79071 48.5992 6.61075C48.6217 6.26208 48.543 5.87967 48.4643 5.49726C48.3855 5.11485 48.2843 4.7212 48.1831 4.32754L48.2956 4.35003C48.0369 4.76619 47.8682 5.22733 47.677 5.63223C47.587 5.84593 47.4745 6.04838 47.3958 6.27333C47.317 6.49827 47.2833 6.74572 47.3283 6.98191V6.99316Z" fill="#FAAE32"/>
<path d="M47.2948 16.7221L47.0698 16.3847C47.9246 15.8111 48.6782 15.0688 49.2518 14.214L49.5892 14.4389C48.9931 15.3387 48.1946 16.126 47.2948 16.7221Z" fill="#FAAE32"/>
<path d="M47.5535 19.0391L47.3398 18.6904C48.1047 18.218 48.6895 17.5095 49.2519 16.8121L49.5668 17.0708C49.0044 17.7569 48.3746 18.533 47.5535 19.0391Z" fill="#FAAE32"/>
<path d="M47.5647 20.8049L47.3848 20.445C48.1721 20.0626 48.8807 19.5565 49.488 18.9379L49.7692 19.219C49.1169 19.8714 48.3745 20.4 47.5535 20.8049H47.5647Z" fill="#FAAE32"/>
<path d="M47.4071 23.4143L47.1597 23.0994L48.6106 21.9634C48.8468 21.7722 49.0942 21.581 49.2967 21.3561L49.6116 21.6148C49.3979 21.8735 49.128 22.0872 48.8693 22.2784L47.4184 23.4143H47.4071Z" fill="#FAAE32"/>
<path d="M47.3508 25.4725L47.1934 25.1013C48.0931 24.7302 48.903 24.0891 49.4541 23.2905L49.7802 23.5267C49.1729 24.3815 48.3068 25.0789 47.3396 25.4725H47.3508Z" fill="#FAAE32"/>
<path d="M47.4636 27.2272L47.3062 26.856C48.071 26.5298 48.802 26.1024 49.4656 25.5963L49.7131 25.9112C49.027 26.4399 48.2734 26.8898 47.4749 27.2272H47.4636Z" fill="#FAAE32"/>
<path d="M47.407 29.3079L47.2271 28.948C48.0369 28.5319 48.8129 28.037 49.5215 27.4634L49.7802 27.7783C49.0491 28.3632 48.2506 28.8805 47.4183 29.3079H47.407Z" fill="#FAAE32"/>
<path d="M47.261 30.7138L47.1147 30.3427C47.9583 30.0053 48.8018 29.6116 49.6117 29.1842L49.8029 29.5441C48.9818 29.9828 48.127 30.3764 47.261 30.7251V30.7138Z" fill="#FAAE32"/>
<path d="M47.1936 14.2589L47.0361 13.8878C47.8234 13.5616 48.5433 13.0667 49.1281 12.4481L49.4206 12.7293C48.802 13.3929 48.0259 13.9215 47.1936 14.2702V14.2589Z" fill="#FAAE32"/>
<path d="M60.1394 30.9501H59.3296C59.3521 24.6628 59.2508 18.2968 59.0259 12.0208C59.0259 11.9646 59.0259 11.9083 59.0146 11.8858C58.9921 11.8858 58.9696 11.8858 58.9247 11.8858C58.4635 11.8633 58.0024 11.9083 57.5637 12.0208C57.7099 18.2406 57.7212 24.5391 57.5862 30.7588L56.7764 30.7364C56.9114 24.4266 56.9001 18.0269 56.7427 11.7284V11.4247L57.0239 11.3347C57.6537 11.1323 58.3061 11.0423 58.9696 11.076C59.0934 11.076 59.3521 11.0985 59.5545 11.2785C59.8132 11.5034 59.8244 11.8408 59.8244 11.9983C60.0494 18.2856 60.1506 24.6628 60.1281 30.9613L60.1394 30.9501Z" fill="#FAAE32"/>
<path d="M58.0923 11.3347C58.1598 10.3449 58.1148 9.33268 58.126 8.33167L58.2385 5.31738L58.3285 8.33167C58.3735 9.33268 58.4859 10.3337 58.4972 11.3572H58.0923V11.3347Z" fill="#FAAE32"/>
<path d="M56.4277 8.17422C56.0227 7.65684 55.7866 6.99325 55.7528 6.30716C55.7191 5.60983 55.8878 4.92374 56.1577 4.31638C56.4164 3.70903 56.7651 3.14666 57.1362 2.59554C57.5074 2.05567 57.9011 1.52705 58.2497 0.975927L58.3397 0.829712L58.4409 0.96468C58.7671 1.35834 58.9695 1.79698 59.2282 2.21313C59.4644 2.62928 59.7119 3.05668 59.9368 3.48408C60.1618 3.92273 60.353 4.36137 60.5217 4.82251C60.6904 5.2949 60.8479 5.80103 60.8703 6.3409C60.8703 6.89202 60.7466 7.47688 60.3867 7.94927C60.2855 8.07299 60.218 8.15172 60.1393 8.25295C60.0605 8.34293 59.9706 8.43291 59.8806 8.53413C59.7006 8.72534 59.4644 8.89405 59.2057 9.01777C58.6884 9.24271 58.1035 9.24271 57.6199 9.06276C57.1362 8.8828 56.7313 8.57912 56.4389 8.18546L56.4277 8.17422ZM56.4951 8.12923C56.7876 8.50039 57.2262 8.75908 57.6761 8.79282C58.126 8.83781 58.5646 8.69159 58.8796 8.44415C59.037 8.33168 59.172 8.17422 59.307 8.00551L59.5094 7.73557C59.5769 7.64559 59.6669 7.53312 59.7119 7.47688C59.9143 7.17321 60.0156 6.7683 60.0156 6.3634C60.038 5.5311 59.6556 4.63131 59.3745 3.72028C59.2282 3.27038 59.082 2.80924 58.9021 2.3706C58.7334 1.9207 58.5534 1.47081 58.2722 1.12214H58.4747C58.1148 1.65077 57.8336 2.23563 57.5861 2.83174C57.3387 3.42784 57.1025 4.0352 56.8438 4.60881C56.5851 5.18243 56.3152 5.73355 56.169 6.3409C56.0115 6.93701 56.1015 7.6231 56.5176 8.12923H56.4951Z" fill="#FAAE32"/>
<path d="M57.496 6.94823C57.3161 6.48709 57.3273 5.90223 57.496 5.42984C57.6535 4.93496 58.0021 4.5413 58.2833 4.12515L58.3508 4.02393L58.3958 4.1364C58.542 4.50756 58.7445 4.85623 58.8907 5.22739C59.0369 5.6098 59.1269 6.0147 59.1269 6.45335C59.1044 6.88075 58.9694 7.35314 58.5195 7.63432C58.2383 7.75804 57.9797 7.61182 57.8334 7.46561C57.676 7.30815 57.5747 7.13944 57.496 6.94823ZM57.541 6.92574C57.6197 7.10569 57.7547 7.26316 57.9234 7.34189C58.0921 7.43187 58.2833 7.42062 58.3508 7.34189C58.3846 7.30815 58.4408 7.22941 58.4858 7.16193C58.5308 7.09445 58.5645 7.01572 58.5983 6.93698C58.6545 6.77952 58.6882 6.61081 58.7107 6.43085C58.7445 6.07094 58.6882 5.68853 58.6208 5.30612C58.5533 4.92371 58.452 4.5413 58.2833 4.18139H58.3958C58.1371 4.60879 58.0246 5.11492 57.8447 5.55356C57.7547 5.77851 57.631 5.99221 57.5635 6.21715C57.4848 6.4421 57.451 6.70079 57.5523 6.92574H57.541Z" fill="#FAAE32"/>
<path d="M57.3612 16.7221L57.1362 16.3847C57.991 15.8111 58.7446 15.0688 59.3182 14.214L59.6556 14.4389C59.0483 15.3387 58.261 16.126 57.3612 16.7221Z" fill="#FAAE32"/>
<path d="M57.6199 19.0391L57.4062 18.6904C58.1711 18.218 58.7559 17.5095 59.3183 16.8121L59.6332 17.0708C59.0709 17.7569 58.441 18.533 57.6199 19.0391Z" fill="#FAAE32"/>
<path d="M57.6311 20.8049L57.4512 20.445C58.2385 20.0626 58.9471 19.5565 59.5544 18.9379L59.8356 19.219C59.1833 19.8714 58.4409 20.4 57.6199 20.8049H57.6311Z" fill="#FAAE32"/>
<path d="M57.4735 23.4143L57.2261 23.0994L58.677 21.9634C58.9132 21.7722 59.1606 21.581 59.3631 21.3561L59.678 21.6148C59.4643 21.8735 59.1944 22.0872 58.9357 22.2784L57.4848 23.4143H57.4735Z" fill="#FAAE32"/>
<path d="M57.4285 25.4726L57.271 25.1015C58.1708 24.7303 58.9806 24.0892 59.5317 23.2906L59.8579 23.5268C59.2505 24.3816 58.3845 25.079 57.4172 25.4726H57.4285Z" fill="#FAAE32"/>
<path d="M57.53 27.2272L57.3726 26.856C58.1374 26.5298 58.8685 26.1024 59.532 25.5963L59.7795 25.9112C59.0934 26.4399 58.3398 26.8898 57.5413 27.2272H57.53Z" fill="#FAAE32"/>
<path d="M57.4734 29.3079L57.2935 28.948C58.1033 28.5319 58.8793 28.037 59.5879 27.4634L59.8466 27.7783C59.1155 28.3632 58.317 28.8805 57.4847 29.3079H57.4734Z" fill="#FAAE32"/>
<path d="M57.3386 30.7138L57.1924 30.3427C58.0359 30.0053 58.8795 29.6116 59.6893 29.1842L59.8805 29.5441C59.0594 29.9828 58.2046 30.3764 57.3386 30.7251V30.7138Z" fill="#FAAE32"/>
<path d="M57.26 14.2591L57.1025 13.8879C57.8899 13.5617 58.6097 13.0668 59.1945 12.4482L59.487 12.7294C58.8684 13.393 58.0923 13.9216 57.26 14.2703V14.2591Z" fill="#FAAE32"/>
<path d="M4.71239 69.5621C7.20929 70.2482 9.84117 70.4732 12.473 70.5856L20.4474 70.8443L36.3961 71.4742C41.7049 71.6654 47.0248 71.7779 52.3448 71.7216C54.9992 71.6879 57.6648 71.6204 60.3079 71.4742C61.6351 71.4067 62.9623 71.328 64.2895 71.2155L65.2793 71.1368C65.6054 71.1255 65.9428 71.0468 66.314 71.1255C66.6964 71.2155 66.9326 71.4967 67.1688 71.7216C67.3937 71.9578 67.6524 72.1828 67.9336 72.1153H67.8999C68.316 71.8453 68.7547 71.5979 69.2158 71.3954C69.4408 71.2942 69.677 71.2042 69.9131 71.1143C70.1381 71.0355 70.4418 70.9456 70.7005 71.0918C70.9479 71.238 71.0716 71.4742 71.2291 71.6541C71.3078 71.7441 71.3865 71.8341 71.4765 71.8791C71.5665 71.9241 71.679 71.9128 71.7802 71.8566C71.9602 71.7329 72.1401 71.4967 72.3988 71.4179C72.6463 71.328 72.9049 71.3055 73.1524 71.3055C74.1534 71.3392 75.1432 71.3617 76.1442 71.328C77.1452 71.2942 78.1349 71.2155 79.1247 71.1255C78.1349 71.238 77.1452 71.328 76.1442 71.3842C75.1544 71.4404 74.1421 71.4404 73.1524 71.4179C72.9049 71.4179 72.6575 71.4517 72.4326 71.5417C72.1964 71.6204 72.0614 71.8116 71.8477 71.9803C71.7352 72.059 71.5665 72.0815 71.4315 72.0253C71.2966 71.9691 71.2066 71.8566 71.1279 71.7666C70.9704 71.5754 70.8354 71.3505 70.633 71.2492C70.4418 71.1368 70.2056 71.2042 69.9694 71.2942C69.7332 71.3842 69.5082 71.4742 69.2833 71.5754C68.8334 71.7891 68.406 72.0365 68.0011 72.3177H67.9899L67.9674 72.329C67.7762 72.374 67.5737 72.329 67.4162 72.2278C67.2588 72.1378 67.1351 72.0141 67.0113 71.9016C66.7751 71.6766 66.539 71.4292 66.2578 71.373C65.9653 71.3167 65.6279 71.3842 65.3017 71.4067L64.312 71.4967C62.9848 71.6316 61.6576 71.7329 60.3304 71.8228C57.6761 72.014 55.0104 72.1265 52.3561 72.2053C47.0361 72.3515 41.7048 72.329 36.3849 72.2165L20.4249 71.8453L12.4393 71.7104C9.76244 71.6429 7.05183 71.4517 4.39746 70.7768L4.71239 69.5734V69.5621Z" fill="#FAAE32"/>
<path d="M81.9705 80.4158C71.488 80.9557 61.0055 81.0682 50.523 80.9445C45.2817 80.877 40.0405 80.7533 34.8105 80.5958L26.9598 80.3259L23.0345 80.1684C22.3822 80.1459 21.7186 80.1122 21.055 79.9659C20.4026 79.8197 19.7503 79.5386 19.2892 79.0212L19.4129 79.0549C19.1092 79.1674 18.8618 79.4373 18.7718 79.7522L18.738 79.8535L18.6368 79.8197C17.8945 79.5723 17.1971 79.1899 16.601 78.695L16.736 78.6275C16.781 79.0324 16.7248 79.4373 16.5673 79.8085L16.5336 79.8985L16.4548 79.831C15.915 79.3586 15.1501 79.2461 14.4303 79.2124L12.2258 79.1786L7.82812 79.1224L12.2258 79.0999H14.4303C15.1501 79.1112 15.9487 79.2124 16.5448 79.7073L16.4323 79.7298C16.5673 79.3811 16.6235 78.9874 16.5785 78.6163L16.5561 78.4138L16.7135 78.5375C17.3096 79.0099 17.9845 79.3698 18.7043 79.5948L18.5806 79.6623C18.6818 79.2799 18.963 78.9649 19.3341 78.8075L19.4016 78.7737L19.4579 78.83C19.874 79.3024 20.4926 79.5498 21.1112 79.6848C21.7411 79.8085 22.3934 79.831 23.0458 79.8422L26.9711 79.9322L34.8217 80.0784C40.0517 80.1571 45.293 80.1909 50.523 80.1684C60.9942 80.1234 71.4543 79.8422 81.8918 79.1336L81.9705 80.3709V80.4158Z" fill="#FAAE32"/>
<path d="M10.7298 73.6786C11.056 73.7236 11.2134 73.7911 11.3709 73.881C11.5284 73.9823 11.6408 74.0947 11.832 74.3647C11.5733 74.5896 11.2697 74.5446 11.0447 74.4097C10.831 74.2634 10.6511 74.0048 10.7298 73.6786Z" fill="#FAAE32"/>
<path d="M33.4941 74.3534C33.9553 74.3759 34.3152 74.5671 34.6414 74.7808C34.9563 75.017 35.2487 75.2869 35.4287 75.7143C34.9675 75.6918 34.6076 75.5006 34.2815 75.2869C33.9665 75.0507 33.6741 74.7808 33.4941 74.3534Z" fill="#FAAE32"/>
<path d="M23.2932 74.7695C23.5856 74.7695 23.7318 74.882 23.8218 75.017C23.9005 75.1632 23.9568 75.3319 23.833 75.6018C23.5406 75.6018 23.3944 75.4894 23.3044 75.3544C23.2257 75.2082 23.1807 75.0395 23.2932 74.7695Z" fill="#FAAE32"/>
<path d="M29.074 76.1642C29.2202 76.5129 29.1527 76.839 29.0065 77.109C28.8491 77.3789 28.6129 77.6151 28.2417 77.6713C28.2417 77.2889 28.3429 77.0527 28.4666 76.8053C28.6016 76.5691 28.7591 76.3554 29.074 76.153V76.1642Z" fill="#FAAE32"/>
<path d="M17.8829 74.2297C18.0516 74.5109 18.0291 74.7359 17.9729 74.9496C17.8942 75.152 17.7704 75.3432 17.4668 75.4782C17.2981 75.197 17.3205 74.9721 17.3768 74.7584C17.4555 74.5559 17.5792 74.3647 17.8829 74.2297Z" fill="#FAAE32"/>
<path d="M35.564 77.9413C35.9126 77.8626 36.1376 77.8963 36.3738 77.9638C36.5987 78.0425 36.8124 78.1213 37.0711 78.3799C36.8012 78.6274 36.4862 78.6386 36.2051 78.5599C35.9239 78.4699 35.6652 78.29 35.564 77.9413Z" fill="#FAAE32"/>
<path d="M44.1345 74.5109C44.3482 74.8145 44.3819 75.0957 44.3595 75.3657C44.3257 75.6356 44.2357 75.9055 43.9658 76.1642C43.7521 75.8605 43.7184 75.5794 43.7409 75.3094C43.7746 75.0395 43.8646 74.7696 44.1345 74.5109Z" fill="#FAAE32"/>
<path d="M55.0216 75.062C54.8866 75.4669 54.6391 75.7144 54.3692 75.9168C54.088 76.108 53.7731 76.2655 53.3457 76.2767C53.4807 75.8718 53.7281 75.6244 53.998 75.4219C54.2792 75.2307 54.5942 75.0733 55.0216 75.062Z" fill="#FAAE32"/>
<path d="M47.3063 77.3903C47.6774 77.469 47.9024 77.6714 48.0936 77.8964C48.2735 78.1326 48.4085 78.4025 48.3973 78.7849C48.0261 78.7062 47.8012 78.5037 47.61 78.2788C47.4412 78.0426 47.295 77.7727 47.3063 77.3903Z" fill="#FAAE32"/>
<path d="M39.8714 76.5804C40.1188 76.7829 40.1976 76.9179 40.2538 77.0753C40.2988 77.244 40.3101 77.4015 40.2313 77.7052C39.9164 77.6827 39.7477 77.4802 39.669 77.2665C39.6127 77.0416 39.624 76.7829 39.8714 76.5804Z" fill="#FAAE32"/>
<path d="M62.6136 73.9597C62.6924 74.3421 62.6024 74.6458 62.4674 74.927C62.3212 75.1969 62.13 75.4444 61.7701 75.6131C61.6914 75.2307 61.7813 74.927 61.9163 74.6458C62.0625 74.3759 62.2537 74.1284 62.6136 73.9597Z" fill="#FAAE32"/>
<path d="M58.0137 77.1653C58.3736 77.1878 58.5873 77.289 58.7897 77.424C58.9809 77.5702 59.1609 77.7277 59.3071 78.0538C58.9697 78.1776 58.6773 78.0876 58.4411 77.9301C58.2161 77.7614 58.0249 77.5252 58.0137 77.1541V77.1653Z" fill="#FAAE32"/>
<path d="M67.3149 76.8165C67.9785 76.8278 68.5522 76.9627 69.137 77.0865C69.7219 77.2327 70.2955 77.3789 70.8803 77.6826C70.2505 77.885 69.5982 77.84 68.9908 77.6938C68.3834 77.5364 67.7873 77.2777 67.3149 76.8165Z" fill="#FAAE32"/>
<path d="M75.1655 75.883C75.413 75.6356 75.6717 75.5794 75.9191 75.5681C76.1665 75.5681 76.4252 75.6356 76.6727 75.883C76.4252 76.1305 76.1665 76.1867 75.9191 76.198C75.6717 76.198 75.413 76.1305 75.1655 75.883Z" fill="#FAAE32"/>
<path d="M78.2698 36.9449C76.4028 37.2486 74.5245 37.361 72.6462 37.4285C70.7679 37.4735 68.8896 37.4847 67 37.2935C68.8671 36.9899 70.7454 36.8774 72.6237 36.8099C74.502 36.7649 76.3803 36.7649 78.2698 36.9449Z" fill="#FAAE32"/>
<path d="M59.6668 37.7547C57.7998 38.0583 55.9102 38.1371 54.0207 38.1371C52.1423 38.1033 50.2528 37.9909 48.3857 37.6422C50.2753 37.496 52.1536 37.5072 54.0207 37.5185C55.899 37.5522 57.766 37.5859 59.6556 37.7659L59.6668 37.7547Z" fill="#FAAE32"/>
<path d="M39.2305 37.8109C37.0148 38.0808 34.7765 38.2158 32.5383 38.2945C30.3001 38.3733 28.0619 38.3283 25.8237 38.2608C23.5855 38.1371 21.3585 37.9908 19.1315 37.7322C16.9045 37.4735 14.7001 37.1361 12.5068 36.6862C14.7338 36.8886 16.9495 37.0911 19.1765 37.2598C21.4035 37.4172 23.6192 37.5747 25.8462 37.6422C28.0731 37.7659 30.3001 37.7884 32.5271 37.8221C34.7541 37.8446 36.981 37.8221 39.2192 37.8221L39.2305 37.8109Z" fill="#FAAE32"/>
<path d="M1.75439 99.1313L42.4697 99.4238L62.8274 99.5925L83.1851 99.7837C76.4029 99.9524 69.6095 100.031 62.8274 100.076C56.0452 100.121 49.2519 100.076 42.4697 100.054C35.6876 99.9749 28.8942 99.8962 22.1121 99.7499C15.3299 99.5925 8.54778 99.4125 1.76564 99.1313H1.75439Z" fill="#FAAE32"/>
</g>
<defs>
<clipPath id="clip0_6013_8649">
<rect width="134.349" height="100" fill="white" transform="translate(0 0.109863)"/>
</clipPath>
</defs>
</svg>
