<svg width="223" height="101" viewBox="0 0 223 101" fill="none" xmlns="http://www.w3.org/2000/svg">
<g clip-path="url(#clip0_6013_8511)">
<path d="M150.457 62.361C148.032 58.6716 144.682 55.2399 140.478 52.1361C138.826 50.9181 136.999 49.7234 135.055 48.5756C127.582 44.1835 118.962 40.3652 108.714 36.9101C104.989 35.5046 101.651 34.3919 98.5007 33.5135L97.9385 33.3027C93.9914 31.8738 89.5173 30.2458 85.1486 29.461C82.2088 28.2078 79.2221 27.1186 76.2823 26.2401C70.2622 24.4247 64.4177 23.1481 58.9364 22.4453C57.4255 22.012 55.7038 21.5201 54.0992 21.4615C50.8197 20.3254 47.3997 19.3767 43.9446 18.6505C40.4309 17.9127 36.718 17.3271 32.5836 16.882C20.0514 15.4999 23.4714 16.5658 17.381 16.0504L16.3386 15.9567C13.5276 15.7108 11.2788 15.7576 9.24088 16.109C4.80191 16.882 0.222379 19.6227 -0.000155419 23.9797C-0.128991 26.6032 1.60444 29.2034 5.30554 31.9323C6.68759 32.9513 8.08136 33.8063 9.11205 34.4271C13.1528 36.8867 17.8729 39.1003 24.3967 41.5833L25.2751 41.923C30.8619 44.0546 36.6361 46.2448 42.3985 48.2476C52.8694 51.8902 64.5466 55.1345 79.1284 58.4608C83.3917 59.4329 87.7253 60.3582 91.93 61.2601C100.176 63.0286 108.702 64.8558 116.994 67.0811C124.034 68.9785 129.456 70.3371 134.54 71.5084C135.453 71.7192 136.425 71.9651 137.28 72.1877C140.454 73.0075 143.734 73.8625 147.025 73.5697C149.485 73.3472 152.272 72.1525 152.764 69.447C153.209 66.9874 151.839 64.4927 150.445 62.3727L150.457 62.361Z" fill="white"/>
<path d="M152.776 69.447C153.221 66.9874 151.85 64.4927 150.457 62.3727C148.032 58.6833 144.682 55.2516 140.478 52.1479C138.826 50.9298 136.999 49.7351 135.055 48.5873C127.582 44.1952 118.962 40.377 108.714 36.9218C104.989 35.5163 101.651 34.4037 98.5007 33.5252L97.9385 33.3144C93.9914 31.8855 89.5173 30.2575 85.1486 29.4728C82.2088 28.2195 79.2221 27.1303 76.2823 26.2519C70.2622 24.4365 64.4177 23.1598 58.9364 22.4571C57.4255 22.0237 55.7038 21.5318 54.0992 21.4732C50.8197 20.3371 47.3997 19.3884 43.9446 18.6623C40.4309 17.9244 36.718 17.3388 32.5836 16.8937C20.0514 15.5116 23.4714 16.5775 17.381 16.0621L16.3386 15.9684C13.5276 15.7225 11.2788 15.7693 9.24088 16.1207C4.80191 16.882 0.222379 19.6227 -0.000155419 23.9797C-0.128991 26.6032 1.60444 29.2034 5.30554 31.9324C6.68759 32.9513 8.08136 33.8063 9.11205 34.4271C13.1528 36.8867 17.8729 39.1003 24.3967 41.5833L25.2751 41.923C30.8619 44.0546 36.6361 46.2448 42.3985 48.2476C52.8694 51.8902 64.5466 55.1345 79.1284 58.4608C83.3917 59.4329 87.7253 60.3582 91.93 61.2601C100.176 63.0286 108.702 64.8558 116.994 67.0811C124.034 68.9785 129.456 70.3371 134.54 71.5084C135.453 71.7192 136.425 71.9651 137.28 72.1877C140.454 73.0075 143.734 73.8626 147.025 73.5697C149.485 73.3472 152.272 72.1525 152.764 69.447H152.776ZM97.6222 34.2865C102.682 36.2659 107.414 38.4678 111.689 40.8337C114.933 42.6374 117.931 44.5348 120.567 46.4908C125.275 49.9694 129.187 53.8227 132.209 57.9689C127.032 56.1535 122.054 53.5416 117.018 49.9928C116.327 49.5126 115.624 48.9972 114.863 48.435C113.223 47.2287 111.583 45.9637 109.99 44.7339L109.944 44.6988C108.421 43.5276 106.699 42.1924 105.024 40.9626C104.134 40.3067 103.314 39.7211 102.506 39.1589C98.5592 36.4065 94.4716 33.9586 90.3255 31.8738C92.6679 32.5648 95.2212 33.3495 97.6222 34.2865ZM65.4953 25.7014C70.1919 27.3177 74.3498 28.9223 78.2032 30.6206C82.443 32.4828 86.2144 34.6145 89.4002 36.9687C94.0851 40.4238 97.7511 44.5231 100.316 49.1612C94.4365 46.0692 88.5452 42.3915 82.3376 37.9174C81.5646 37.3669 80.8033 36.8047 80.042 36.2425L77.1491 34.0991C75.0877 32.5765 72.8623 30.9602 70.5784 29.4728C67.5801 27.5168 64.3826 25.7717 61.0563 24.2373C62.4735 24.6824 63.9375 25.1626 65.4953 25.6897V25.7014ZM149.836 71.6723C146.58 73.4878 142.082 72.3048 138.475 71.3444C138.1 71.2507 137.737 71.1453 137.386 71.0633C135.336 70.5362 133.239 70.0326 131.213 69.5524L131.002 69.5056C128.086 68.8028 125.076 68.0767 122.136 67.2919C121 66.9874 119.852 66.6829 118.704 66.3666C114.453 65.2188 110.061 64.0242 105.68 62.9935C102.073 62.1502 98.3835 61.3889 94.7996 60.6393L94.6942 60.6159C92.5976 60.1825 90.4426 59.7375 88.3226 59.2807C78.8356 57.231 66.362 54.3966 53.9352 50.6838C48.7466 49.1378 43.2535 47.299 37.1514 45.0619C36.1793 44.7105 35.1954 44.3474 34.2116 43.9961L34.1179 43.9609C29.6672 42.3446 25.0643 40.6815 20.6956 38.7138C20.0982 38.4444 19.5009 38.175 18.8919 37.9057C14.8394 36.0902 10.6347 34.2045 6.99211 31.5224C6.76958 31.3584 6.54705 31.1945 6.33622 31.0188L6.1254 30.8548C4.38026 29.4962 2.21348 27.8096 1.4756 25.6662C0.222379 22.0471 3.82978 19.3533 6.16054 18.3226C8.42102 17.3271 11.0914 16.9406 14.5466 17.1045C16.8773 17.2216 20.6019 17.3036 23.5182 17.8893C32.8178 19.7867 68.2828 46.8187 73.12 43.3636C75.4859 42.8834 66.5025 33.1387 61.0212 29.098C58.8778 27.5168 56.5822 26.0879 54.2046 24.8581C50.0701 22.7147 45.6897 21.0633 41.1804 19.9038C35.8865 18.5451 28.3554 17.9244 28.3554 17.9244C29.187 16.9757 40.9111 19.2362 41.6724 19.3884C47.5403 20.5714 52.9865 22.1877 57.8705 24.2139C66.3386 27.7393 73.1669 32.2252 80.979 37.9174C87.1983 42.4383 93.7923 47.8729 100.995 50.5198C101.183 50.5901 101.37 50.5316 101.487 50.3793C101.569 50.3559 101.628 50.3207 101.686 50.2739C101.874 50.1216 101.921 49.8757 101.815 49.6531C99.3557 44.3826 95.4437 39.7445 90.1732 35.856C87.1631 33.6306 83.6728 31.6278 79.7961 29.9178C75.8021 28.1493 71.5974 26.5095 66.9242 24.9284C89.3065 30.3863 94.4482 34.5208 111.501 47.0998C117.873 51.7965 125.029 57.2779 132.759 58.7653C132.947 59.023 133.263 59.0347 133.427 58.8707C133.579 58.8356 133.638 58.6951 133.603 58.6951C134.024 57.9689 129.199 51.328 121.445 45.6007C118.681 43.5627 115.624 41.6185 112.087 39.6742C111.033 39.0886 109.92 38.5147 108.772 37.9408C111.314 38.7607 114.078 39.6859 116.725 40.7283C120.204 42.1924 123.706 43.797 127.137 45.4952C131.038 47.4161 135.582 49.7937 139.752 52.874C141.953 54.502 143.851 56.1652 145.549 57.9689C150.07 62.771 152.155 66.5072 151.757 69.0839C151.581 70.1849 150.937 71.0516 149.812 71.6841L149.836 71.6723ZM28.8942 19.0253C32.935 19.7047 36.9406 20.2434 40.8759 21.2858C45.3266 22.4571 49.4494 23.9914 53.127 25.8419C55.4578 27.0132 57.73 28.4187 59.8733 29.9998C64.2655 33.2324 68.2477 37.2849 72.0425 42.3798C66.1746 41.1617 60.9626 38.175 56.1957 35.1181C55.4344 34.6379 42.2931 26.287 28.8825 19.0253H28.8942Z" fill="#FAAE32"/>
<path d="M149.707 66.7766C149.707 66.7766 149.414 67.2568 148.735 68.0298C148.383 68.4046 147.903 68.8263 147.247 69.1776C146.603 69.5407 145.772 69.8101 144.811 69.9624C142.879 70.2552 140.466 69.9624 137.737 69.3065C135.008 68.6272 131.892 67.8073 128.508 66.718C125.123 65.6522 121.422 64.3756 117.346 63.2863C113.27 62.2439 108.925 61.2015 104.345 60.1123C95.1742 57.9338 85.0782 55.6733 74.5488 53.0263C69.2782 51.7145 64.1599 50.3442 59.2407 48.9387C56.7811 48.2477 54.3801 47.4981 52.0259 46.7953C50.8547 46.4206 49.6952 46.0458 48.5474 45.6827C47.9735 45.4953 47.4113 45.3196 46.8374 45.1322C46.2752 44.9448 45.713 44.7457 45.1625 44.5583C40.7001 43.106 36.5656 41.396 32.5483 40.0959C28.5544 38.7841 24.8299 37.6597 21.527 36.3948C14.9212 33.8766 9.80293 31.0891 6.93341 28.3953C5.49279 27.06 4.67292 25.7483 4.33327 24.7761C4.00532 23.804 4.04046 23.2418 3.97018 23.2418C3.94676 23.2418 3.92333 23.3824 3.91162 23.6518C3.91162 23.9211 3.93505 24.3311 4.06388 24.8581C4.33327 25.9005 5.11799 27.3411 6.55861 28.77C9.41642 31.663 14.5347 34.6145 21.1756 37.2732C24.5019 38.5967 28.2382 39.7914 32.1852 41.1383C36.1323 42.4618 40.2667 44.2186 44.7526 45.7061C45.3148 45.9052 45.8652 46.0926 46.4391 46.2917C47.0013 46.4791 47.5752 46.6665 48.1491 46.8539C49.297 47.2287 50.4565 47.6035 51.6394 47.99C54.0053 48.7162 56.4064 49.4775 58.8777 50.1802C63.8086 51.6208 68.9386 52.9912 74.2208 54.3147C84.7736 56.9617 94.8931 59.1987 104.064 61.3069C108.655 62.3611 113.012 63.3683 117.065 64.3522C121.094 65.3828 124.806 66.6009 128.226 67.6082C129.936 68.1118 131.576 68.5803 133.134 68.9785C134.703 69.365 136.156 69.7281 137.561 70.0209C140.349 70.6183 142.867 70.8408 144.881 70.4543C145.889 70.2552 146.755 69.9272 147.435 69.5056C148.114 69.0839 148.594 68.6037 148.922 68.1821C149.25 67.7487 149.449 67.3974 149.555 67.1514C149.66 66.9054 149.707 66.7649 149.683 66.7532L149.707 66.7766Z" fill="#FAAE32"/>
<path d="M54.0989 46.4322C56.0315 47.0178 58.819 47.8377 62.2859 48.8098C69.2196 50.7775 78.8354 53.3308 89.4937 55.9544C100.164 58.5779 109.85 60.8267 116.854 62.4664C123.869 64.1062 128.203 65.1251 128.203 65.1251C128.203 65.1251 127.137 64.7972 125.205 64.2116C123.272 63.6259 120.485 62.8061 117.018 61.8222C110.084 59.8546 100.48 57.2896 89.8099 54.666C79.1399 52.0424 69.4538 49.8054 62.4498 48.1539C55.4342 46.5142 51.1006 45.4952 51.1006 45.4952C51.1006 45.4952 52.1664 45.8232 54.0989 46.3971V46.4322Z" fill="#FAAE32"/>
<path d="M58.6789 40.3652C58.6789 40.3652 57.0274 39.1706 54.3219 37.3083C51.6046 35.4461 47.8215 32.9396 43.5348 30.3278C39.2598 27.7042 35.301 25.4788 32.4081 23.8977C29.5151 22.3282 27.6997 21.403 27.6997 21.403C27.6997 21.403 34.5163 25.8536 43.0663 31.0891C51.6163 36.3128 58.6789 40.3652 58.6789 40.3652Z" fill="#FAAE32"/>
<path d="M80.159 40.0022C83.8601 42.6492 87.3152 44.8628 89.8568 46.4206C92.3984 47.9783 94.003 48.8802 94.003 48.8802C94.003 48.8802 92.5155 47.8026 90.1028 46.0458C87.69 44.3124 84.352 41.9113 80.6743 39.2643C76.9849 36.6408 73.6352 34.2632 71.2107 32.5415C68.7746 30.8314 67.2754 29.7656 67.2754 29.7656C67.2754 29.7656 68.6457 30.9954 70.9414 32.8928C73.237 34.7902 76.4579 37.3552 80.159 39.9905V40.0022Z" fill="#FAAE32"/>
<path d="M111.7 49.5361C115.519 52.2885 119.138 54.5489 121.796 56.095C123.132 56.868 124.209 57.477 124.97 57.887C125.732 58.2969 126.153 58.5194 126.153 58.5194C126.153 58.5194 124.584 57.4419 122.042 55.7085C119.501 53.9633 116.034 51.5389 112.227 48.7982C108.433 46.0575 105.013 43.5393 102.565 41.6771C100.117 39.8148 98.5942 38.667 98.5942 38.667C98.5942 38.667 98.9456 38.9949 99.5664 39.5806C100.199 40.1662 101.112 41.0095 102.272 42.0284C104.591 44.0547 107.882 46.7719 111.7 49.5243V49.5361Z" fill="#FAAE32"/>
<path d="M131.389 52.9561C130.545 51.574 129.199 49.7469 127.383 48.0252C125.568 46.3152 123.67 45.062 122.241 44.3006C121.527 43.9141 120.93 43.633 120.52 43.4456C120.098 43.27 119.875 43.1646 119.875 43.1646C119.875 43.1646 120.086 43.3051 120.449 43.5628C120.824 43.8087 121.351 44.1952 121.995 44.6637C123.284 45.6124 125.006 47.0062 126.762 48.6694C128.519 50.3325 130.007 51.9722 131.026 53.2137C131.541 53.8345 131.939 54.3381 132.22 54.7012C132.501 55.0526 132.654 55.2517 132.654 55.2517C132.654 55.2517 132.537 55.0292 132.337 54.6192C132.138 54.2093 131.822 53.6354 131.389 52.9444V52.9561Z" fill="#FAAE32"/>
<path d="M113.715 43.6799C115.835 45.0619 117.814 46.4557 119.571 47.7558C121.328 49.0793 122.874 50.3091 124.139 51.3866C124.783 51.9137 125.345 52.4173 125.837 52.8506C126.341 53.284 126.762 53.6588 127.102 53.975C127.793 54.5958 128.168 54.9472 128.168 54.9472C128.168 54.9472 127.805 54.5724 127.161 53.9048C126.833 53.5651 126.434 53.1552 125.966 52.6984C125.486 52.2416 124.959 51.7028 124.338 51.1524C123.12 50.0163 121.609 48.7162 119.887 47.3458C118.154 45.9872 116.186 44.5466 114.043 43.1645C111.899 41.7825 109.791 40.5761 107.835 39.5571C105.867 38.5499 104.076 37.7066 102.529 37.0507C101.768 36.711 101.065 36.4417 100.445 36.1957C99.8356 35.9497 99.2969 35.7506 98.8518 35.5984C97.9734 35.2821 97.4932 35.1064 97.4932 35.1064C97.4932 35.1064 97.9617 35.3173 98.8167 35.6804C99.25 35.8677 99.7654 36.0903 100.363 36.3714C100.96 36.6525 101.651 36.9453 102.401 37.3201C103.9 38.0345 105.657 38.9364 107.589 40.0022C109.51 41.068 111.583 42.2978 113.715 43.6682V43.6799Z" fill="#FAAE32"/>
<path d="M73.401 29.4377C73.928 29.6719 74.537 29.9179 75.1929 30.2341C75.8488 30.5386 76.575 30.8783 77.3363 31.2648C78.1093 31.6396 78.894 32.0847 79.7373 32.5414C81.4005 33.4901 83.2042 34.5911 85.0196 35.8443C86.835 37.1093 88.4865 38.4093 89.9622 39.6508C90.6884 40.2833 91.3794 40.8689 92.0002 41.4663C92.6326 42.0402 93.1948 42.6023 93.7102 43.106C94.2372 43.6096 94.6706 44.1015 95.0805 44.5115C95.4787 44.9214 95.8184 45.2962 96.0878 45.6007C96.6265 46.2097 96.9311 46.5377 96.9311 46.5377C96.9311 46.5377 96.65 46.1746 96.158 45.5304C95.9121 45.2025 95.6076 44.816 95.2211 44.3709C94.8463 43.9258 94.4363 43.4105 93.9327 42.8834C93.4408 42.3447 92.902 41.7473 92.293 41.15C91.6956 40.5293 91.0163 39.9085 90.3019 39.2526C88.8612 37.9643 87.2098 36.6173 85.371 35.3407C83.5321 34.0758 81.6933 32.9865 79.9833 32.0847C79.1166 31.6513 78.3084 31.2297 77.512 30.8783C76.739 30.5152 75.9894 30.2107 75.3101 29.9413C74.6425 29.6602 74.01 29.4494 73.4712 29.2503C72.9325 29.0512 72.4523 28.8989 72.0657 28.7818C71.2927 28.5358 70.8594 28.407 70.8594 28.407C70.8594 28.407 71.281 28.571 72.0423 28.8755C72.4171 29.016 72.8856 29.2034 73.4127 29.4377H73.401Z" fill="#FAAE32"/>
<path d="M68.3764 39.1589C68.0368 38.7724 67.6034 38.3039 67.0881 37.7769C66.5727 37.2498 65.9988 36.6408 65.3078 36.02C64.9681 35.7038 64.6168 35.3758 64.242 35.0245C63.8672 34.6848 63.4573 34.3451 63.0473 33.9938C62.2275 33.2676 61.3022 32.5649 60.3301 31.8036C58.3624 30.3278 56.1253 28.8169 53.654 27.4114C51.1827 26.0294 48.7231 24.8933 46.4392 23.968C45.2914 23.5347 44.2022 23.1013 43.1598 22.7851C42.6444 22.6211 42.1408 22.4454 41.6606 22.3049C41.1687 22.1643 40.7002 22.0355 40.2551 21.9066C39.365 21.6373 38.5451 21.4733 37.8306 21.2976C36.8937 21.0633 36.4252 20.9931 34.3989 20.6066C37.3504 21.3444 37.7369 21.403 41.5435 22.6445C42.0237 22.7968 42.5039 22.9959 43.0192 23.1833C44.0382 23.5347 45.1157 23.9914 46.2401 24.4482C48.4772 25.4203 50.8899 26.5799 53.3495 27.9502C55.7974 29.344 58.0344 30.808 60.0255 32.2252C60.9977 32.9514 61.9464 33.6307 62.7779 34.3217C63.1996 34.6614 63.6212 34.9776 63.996 35.3056C64.3825 35.6335 64.7456 35.9497 65.097 36.2543C65.8114 36.8516 66.3971 37.4372 66.9475 37.9291C67.498 38.421 67.9431 38.8661 68.3062 39.2409C69.044 39.9671 69.4423 40.377 69.4423 40.377C69.4423 40.377 69.0558 39.9436 68.3764 39.1823V39.1589Z" fill="#FAAE32"/>
<path d="M139.787 68.5686C140.736 68.756 141.637 68.8848 142.469 68.9668C143.301 69.0722 144.109 69.0722 144.741 68.8028C145.362 68.5452 145.713 68.0884 145.842 67.7487C145.912 67.5848 145.936 67.4442 145.936 67.3505C145.936 67.2568 145.936 67.21 145.936 67.21C145.936 67.21 145.936 67.2568 145.901 67.3505C145.877 67.4325 145.83 67.5613 145.748 67.7136C145.573 68.0064 145.198 68.3578 144.624 68.5217C144.05 68.6857 143.336 68.6154 142.528 68.4632C141.719 68.3109 140.829 68.1469 139.892 67.9713C138.018 67.6082 136.332 67.2568 135.114 66.9874C133.896 66.718 133.134 66.5424 133.134 66.5424C133.134 66.5424 133.849 66.8586 135.032 67.2802C136.215 67.7019 137.889 68.2055 139.787 68.5686Z" fill="#FAAE32"/>
<path d="M84.0361 36.8984C82.3963 35.7038 80.7917 34.7902 79.6088 34.2046C78.4258 33.6073 77.6528 33.3145 77.6528 33.3145C77.6528 33.3145 78.3204 33.7947 79.398 34.556C80.4638 35.329 81.9278 36.3948 83.5441 37.566C85.1487 38.7607 86.6011 39.8382 87.6552 40.623C88.7093 41.4194 89.3652 41.9113 89.3652 41.9113C89.3652 41.9113 88.8498 41.2671 87.9363 40.3067C87.0227 39.3463 85.6758 38.0931 84.0361 36.8867V36.8984Z" fill="#FAAE32"/>
<path d="M6.81634 24.7293C6.9686 25.3735 7.35511 26.2871 8.12813 27.2006C8.88943 28.1142 10.0021 29.0277 11.3022 29.871C12.6022 30.7143 14.078 31.5693 15.6709 32.3658C18.8683 33.9704 21.9604 34.9893 24.2209 35.5867C25.3453 35.8912 26.2705 36.0786 26.9147 36.2074C27.5589 36.3245 27.9103 36.3948 27.9103 36.3948C27.9103 36.3948 27.5706 36.2894 26.9499 36.0903C26.3291 35.8912 25.439 35.5867 24.3497 35.1884C22.1712 34.4037 19.208 33.1973 16.0574 31.6279C14.4762 30.8432 13.0005 30.0467 11.677 29.2854C10.3652 28.5241 9.2408 27.7394 8.44436 26.9312C7.63621 26.1348 7.16771 25.3149 6.94518 24.7059C6.83977 24.4014 6.76949 24.1554 6.74607 23.9914C6.71093 23.8275 6.69922 23.7338 6.69922 23.7338C6.69922 23.7338 6.69922 23.8275 6.71093 23.9914C6.71093 24.1671 6.75778 24.4131 6.82805 24.741L6.81634 24.7293Z" fill="#FAAE32"/>
<path d="M50.3277 29.2502C47.06 27.4114 43.9679 25.9825 41.7074 25.0455C39.4353 24.0968 38.0063 23.6049 38.0063 23.6049C38.0063 23.6049 39.3533 24.3076 41.5318 25.4203C43.6985 26.5564 46.6735 28.1492 49.9178 29.9764C53.1621 31.8035 56.0668 33.5252 58.1633 34.8019C60.2481 36.0785 61.5482 36.8749 61.5482 36.8749C61.5482 36.8749 60.3769 35.9028 58.3975 34.4505C56.4182 32.9982 53.5955 31.089 50.3394 29.2502H50.3277Z" fill="#FAAE32"/>
<path d="M114.324 45.7178C108.995 42.1221 104.439 39.5688 104.439 39.5688C104.439 39.5688 108.527 42.8249 113.856 46.4206C119.185 50.0163 123.741 52.5696 123.741 52.5696C123.741 52.5696 119.653 49.3135 114.324 45.7178Z" fill="#FAAE32"/>
<path d="M81.9044 51.4568C85.3478 52.4524 88.2525 52.8506 88.2525 52.8506C88.2525 52.8506 85.582 51.6442 82.1386 50.6604C78.6952 49.6648 75.7905 49.2666 75.7905 49.2666C75.7905 49.2666 78.4609 50.473 81.9044 51.4568Z" fill="#FAAE32"/>
<path d="M83.9071 50.0396C84.6333 50.1099 85.1018 50.0865 85.1018 50.0865C85.1018 50.0865 83.4387 49.3369 81.3656 48.681C79.2925 48.0368 77.5005 47.6971 77.5005 47.6971C77.5005 47.6971 77.8636 47.9665 78.5078 48.3413C79.1402 48.7044 80.0538 49.1495 81.1196 49.4891C82.1854 49.8288 83.181 49.9811 83.9189 50.0396H83.9071Z" fill="#FAAE32"/>
<path d="M107.086 58.3438C107.086 58.3438 109.979 59.3744 113.657 60.1357C117.334 60.897 120.391 61.1079 120.391 61.1079C120.391 61.1079 117.498 60.0772 113.821 59.3159C110.143 58.5546 107.086 58.3438 107.086 58.3438Z" fill="#FAAE32"/>
<path d="M105.868 3.237C120.848 -1.84616 171.551 -4.4463 165.882 25.8887C165.765 26.5211 165.636 27.1419 165.507 27.7744C165.343 28.5708 164.734 29.4727 164.746 30.234C168.388 28.4888 172.593 27.7744 176.634 27.4347C190.244 26.2869 201.288 26.4743 200.902 38.9596C200.878 39.6858 199.286 42.0283 198.419 42.0517C202.46 41.9346 207.098 41.5012 211.033 42.5788C213.446 43.2347 213.879 44.3122 214.418 49.3602C214.664 51.6207 215.718 52.0072 212.357 53.3424C211.478 53.6938 207.133 55.7552 206.266 56.2119C205.083 56.8444 203.924 57.4769 202.706 58.0508C207.285 57.3129 212.029 56.7741 216.655 57.4417C217.604 57.5823 218.482 57.84 219.443 57.8868C220.262 57.9219 221.141 57.8868 221.867 58.3319C223.214 59.14 222.863 61.0257 222.546 62.2672C222.265 63.3682 221.691 64.3754 220.918 65.2656C217.674 69.0018 211.888 70.5713 207.063 71.6371C183.345 76.8374 152.038 71.3911 151.089 69.6343C148.63 69.1892 144.378 67.936 144.413 66.1791C143.886 66.39 138.37 68.1351 134.938 66.4134C128.192 68.3225 126.575 63.6376 106.536 62.8177C102.413 62.6537 97.9153 62.6654 93.9799 61.4005C83.9659 58.1796 87.7607 40.0723 84.9848 28.3834C84.6803 27.0833 83.6145 26.1815 83.4388 24.8463C82.1036 14.5628 94.952 6.9381 105.845 3.237H105.868Z" fill="white"/>
<path d="M83.4623 24.8462C83.638 26.1931 84.7038 27.095 85.0083 28.3833C87.7725 40.0723 83.9894 58.1796 94.0034 61.4004C97.9388 62.6654 102.436 62.6537 106.559 62.8176C126.611 63.6375 128.227 68.3224 134.961 66.4133C138.393 68.135 143.921 66.3782 144.437 66.1791C144.402 67.9476 148.642 69.2009 151.113 69.6342C152.062 71.3794 183.369 76.8373 207.086 71.637C211.912 70.5829 217.697 69.0018 220.942 65.2655C221.703 64.3871 222.289 63.3681 222.57 62.2672C222.886 61.0256 223.237 59.14 221.891 58.3318C221.164 57.8985 220.286 57.9219 219.466 57.8867C218.506 57.8399 217.627 57.5822 216.679 57.4417C212.052 56.7741 207.309 57.3128 202.729 58.0507C203.947 57.4651 205.107 56.8326 206.29 56.2119C207.156 55.7551 211.513 53.6937 212.38 53.3424C215.742 51.9954 214.687 51.6089 214.441 49.3602C213.903 44.3121 213.469 43.2346 211.057 42.5787C207.121 41.5012 202.483 41.9228 198.442 42.0517C199.309 42.0282 200.902 39.6975 200.925 38.9596C201.312 26.4742 190.267 26.2868 176.657 27.4346C172.617 27.7743 168.412 28.5005 164.769 30.2339C164.769 29.4726 165.367 28.5707 165.531 27.7743C165.66 27.1418 165.788 26.5211 165.906 25.8886C171.551 -4.43465 120.86 -1.84622 105.868 3.23694C94.9638 6.93804 82.1271 14.5511 83.4623 24.8462ZM199.309 37.5073C182.233 34.3566 164.746 40.8687 160.131 43.8319C159.159 41.3255 158.023 39.0299 156.77 37.0036C172.254 23.6516 196.041 30.0348 197.775 31.8853C197.88 32.3773 199.028 36.8865 199.309 37.519V37.5073ZM176.341 56.0713C161.736 49.1142 189.857 40.8101 212.193 44.031C213.961 54.0334 213.036 49.3367 213.352 51.9134C210.834 51.5035 187.772 50.7891 176.341 56.083V56.0713ZM182.514 62.1852C173.893 63.9069 167.346 65.5935 163.996 66.5187C162.708 66.4719 161.373 66.4485 159.991 66.4602C173.027 59.7607 178.988 54.9001 187.843 54.0334C195.046 53.3189 211.818 52.6865 211.83 52.6865C200.656 56.1299 209.522 56.8209 182.514 62.1969V62.1852ZM155.564 68.6153C155.622 68.5918 155.692 68.5567 155.751 68.5215C155.716 68.6035 155.739 68.5567 155.681 68.6387C155.622 68.627 155.575 68.6152 155.552 68.6035L155.564 68.6153ZM219.864 58.9409C192.809 71.7307 183.006 67.444 165.589 66.589C193.605 62.0798 205.763 56.8795 219.864 58.9409ZM183.966 69.5639C188.335 69.9153 210.623 67.8774 221.363 59.1868C221.481 59.2102 221.809 59.2805 221.809 59.2805C223.366 68.5098 196.932 73.1011 186.812 72.9137C185.793 72.3398 184.739 70.7469 183.966 69.5757V69.5639ZM156.84 68.9315C162.415 69.6225 166.28 70.2198 171.75 71.0163C172.605 71.1334 173.073 71.1803 173.085 71.1451C173.167 70.7937 162.813 68.8846 161.724 68.6972C180.031 70.9343 183.685 71.0748 161.841 67.7954C167.124 67.772 175.393 68.0648 182.033 68.99C182.151 69.2946 184.434 72.1055 185.489 72.8668C171.937 72.3749 160.565 69.8216 156.84 68.9315ZM145.866 66.0854L145.913 65.9917C148.126 64.4808 156.899 56.8678 171.199 51.199C171.235 51.2927 171.293 51.3747 171.375 51.4332C171.375 52.8504 172.043 54.2793 173.144 55.2632C174.057 56.0713 175.451 56.4578 173.823 57.2543C173.296 57.5119 153.057 67.3855 151.441 68.8612C150.902 68.6855 150.492 68.5918 149.883 68.4279C158.41 63.1104 155.013 64.3051 148.805 67.8657L149.005 68.1702C148.489 67.9945 147.974 67.7602 147.435 67.4089C159.136 58.7066 158.175 58.8354 146.58 66.7647C146.346 66.5656 146.112 66.3431 145.866 66.0854ZM141.661 65.6169C145.749 59.6202 159.511 46.3501 160.776 44.886C166.784 42.649 176.06 36.4063 199.543 38.4794C195.186 45.8699 191.731 39.3812 176.013 46.3501C174.385 47.0645 172.347 48.0367 171.481 49.5827C171.445 49.6413 171.141 50.344 171.176 50.344C167.006 50.1917 146.709 61.7635 144.823 65.3124C143.757 65.2655 142.692 65.4412 141.661 65.6169ZM134.423 64.7619C138.159 60.4283 140.923 57.0317 140.794 56.9263C140.654 56.8209 137.878 59.5967 134.235 63.4501C134.306 62.9231 134.481 62.4077 134.68 61.9743C136.156 58.7183 139.143 55.9191 141.638 53.3072C146.627 48.0835 152.073 43.0589 156.161 37.1676C156.161 37.1676 156.173 37.1676 156.184 37.1676C156.5 38.3271 158.62 44.7455 159.475 44.9212C159.475 44.9212 159.475 44.9212 159.487 44.9329C145.081 55.1226 141.813 68.5801 135.816 65.8628C140.349 61.0256 139.635 61.0842 134.891 65.3124C134.645 65.1133 134.552 64.9844 134.434 64.7502L134.423 64.7619ZM127.7 56.6687C128.004 54.8884 128.215 53.0964 128.379 51.3044C128.836 46.2915 128.965 41.1498 128.157 36.1721C127.782 33.8179 127.208 31.3934 126.376 29.1564C125.287 26.2517 124.104 23.2182 124.303 20.091C125.603 -0.370463 170.813 2.5342 165.074 24.202C164.933 24.7525 163.832 29.9879 163.727 30.4096C160.155 31.979 157.66 33.7476 156.301 35.6684C155.294 35.9847 150.199 41.8174 149.602 42.5084C136.379 57.7462 131.588 61.4824 132.537 64.1294C130.581 64.1294 129.117 63.7781 129.07 63.9303C129.035 64.0123 129.445 64.27 130.183 64.5394C130.909 64.797 131.963 65.0547 133.193 65.1367C133.24 65.1835 133.275 65.2304 133.322 65.2772C124.807 65.6637 127.173 59.7373 127.688 56.6687H127.7ZM86.3084 28.6762C87.6553 29.0861 89.3536 28.559 90.6888 28.114C95.9945 26.322 97.6811 29.1095 103.783 29.3672C109.335 29.6014 114.09 26.767 124.76 28.4068C130.511 38.3037 124.385 61.8924 126.329 64.5745C116.116 59.7139 96.791 62.3726 91.9186 58.4958C87.9013 55.2983 90.2086 41.7588 86.3201 28.6644L86.3084 28.6762ZM85.7579 22.2929C90.7825 1.37468 131.518 -1.79937 153.127 5.13434C155.306 5.83708 157.519 7.20743 159.311 8.43722C157.18 6.97318 154.006 6.12989 151.429 5.6614C145.116 4.51359 135.676 5.05235 129.14 9.43277C122.652 13.7781 120.731 21.2037 124.608 27.6806C124.584 27.6806 124.561 27.6806 124.538 27.704C118.834 25.0336 111.982 28.1257 105.282 27.8329C101.031 27.6455 95.5026 25.7598 91.2159 26.8725C84.9849 28.5239 84.5516 27.3175 85.7462 22.3046L85.7579 22.2929Z" fill="#FAAE32"/>
<path d="M154.322 15.6286C155.493 15.488 156.746 16.3665 156.887 17.444C156.946 17.9828 156.723 18.4044 156.337 18.6621C155.657 19.1189 155.154 18.7558 155.154 18.7558C155.154 18.7558 155.271 18.7909 155.458 18.7558C155.962 18.7089 156.477 18.1702 156.278 17.5377C156.079 16.8467 155.165 16.2142 154.369 16.1908C153.69 16.1674 153.139 16.6593 153.081 17.1395C153.057 17.3152 153.081 17.4206 153.081 17.4206C152.917 17.2215 152.87 16.753 153.139 16.3196C153.397 15.9097 153.83 15.6637 154.334 15.6169L154.322 15.6286Z" fill="#FAAE32"/>
<path d="M142.188 23.5696C142.715 23.4759 143.172 23.6867 143.465 23.9444C143.758 24.202 143.898 24.5651 143.84 24.8696C143.828 24.9516 143.804 25.0219 143.781 25.057L143.746 25.1273C143.746 25.1273 143.699 25.1976 143.676 25.221C143.558 25.3147 143.453 25.3264 143.371 25.3147C143.172 25.3147 143.23 25.1624 143.23 25.1624C143.23 25.1624 143.23 25.1742 143.23 25.1976C143.23 25.221 143.301 25.2327 143.359 25.1976C143.418 25.1742 143.476 25.1273 143.5 25.0687V25.0453C143.57 23.7921 140.935 23.8858 141.532 25.994C141.532 25.994 141.474 25.9472 141.38 25.83C141.286 25.7246 141.181 25.5372 141.122 25.2913C141.064 25.0453 141.052 24.7174 141.193 24.366C141.333 24.0263 141.661 23.6516 142.2 23.5461L142.188 23.5696Z" fill="#FAAE32"/>
<path d="M158.163 28.3482C158.281 28.1608 158.491 27.9383 158.831 27.8211C159.171 27.704 159.616 27.7274 159.979 27.95C160.342 28.1608 160.565 28.5824 160.483 28.9455C160.412 29.2969 160.178 29.5194 159.967 29.6366C159.745 29.7537 159.546 29.7654 159.417 29.7537C159.288 29.742 159.229 29.7068 159.229 29.7068C159.229 29.7068 159.3 29.7068 159.405 29.6483C159.51 29.6014 159.639 29.5194 159.733 29.3789C159.838 29.2501 159.897 29.0627 159.873 28.8987C159.85 28.7464 159.756 28.6176 159.581 28.5122C159.405 28.4068 159.194 28.3599 159.007 28.3716C158.808 28.3833 158.609 28.4653 158.456 28.5707C158.304 28.6644 158.187 28.7816 158.105 28.8635C158.035 28.9455 157.988 29.0041 157.988 29.0041C157.988 29.0041 157.988 28.9455 157.988 28.8284C158 28.7113 158.046 28.5473 158.163 28.3482Z" fill="#FAAE32"/>
<path d="M141.872 10.7328C142.118 10.4049 142.516 10.1004 143.031 9.98325C143.289 9.92469 143.57 9.92469 143.816 9.98325C144.074 10.0418 144.308 10.1824 144.46 10.3463C144.776 10.6743 144.87 11.0725 144.811 11.377C144.8 11.459 144.765 11.5293 144.741 11.5878C144.706 11.6581 144.671 11.7167 144.636 11.7518L144.612 11.787L144.601 11.8104L144.577 11.8338C144.542 11.8572 144.507 11.8689 144.472 11.8807C144.402 11.8924 144.343 11.8807 144.296 11.8689C144.109 11.787 144.144 11.6581 144.144 11.6698C144.003 11.4473 144.425 12.068 144.437 11.6698C144.765 10.7328 142.727 9.53818 141.485 12.56C141.485 12.56 141.473 12.478 141.462 12.3257C141.462 12.1735 141.45 11.9509 141.497 11.6815C141.544 11.4122 141.637 11.0725 141.883 10.7446L141.872 10.7328Z" fill="#FAAE32"/>
<path d="M145.854 41.384C146.17 41.4543 146.463 41.6066 146.686 41.8174C146.908 42.0282 147.037 42.3093 147.06 42.5787C147.119 43.1174 146.85 43.5274 146.58 43.7733C146.311 44.031 145.995 44.1247 145.795 44.1598C145.596 44.1833 145.479 44.1598 145.479 44.1598C145.479 44.1598 145.585 44.1364 145.76 44.0544C145.924 43.9724 146.135 43.8202 146.287 43.5625C146.44 43.3166 146.533 42.9769 146.44 42.6724C146.358 42.3679 146.065 42.1336 145.678 42.0516C145.28 41.9579 144.87 42.0516 144.624 42.2507C144.355 42.4616 144.226 42.8012 144.167 43.094C144.109 43.3868 144.097 43.6445 144.085 43.8319C144.085 44.0076 144.085 44.113 144.085 44.113C144.085 44.113 144.039 44.0193 143.98 43.8436C143.921 43.6679 143.839 43.422 143.804 43.0823C143.781 42.7544 143.804 42.2859 144.167 41.8642C144.542 41.4426 145.233 41.2435 145.854 41.3957V41.384Z" fill="#FAAE32"/>
<path d="M163.095 15.6051C163.165 16.1088 163.06 16.9052 162.544 16.9169C162.65 16.8349 162.743 16.6475 162.685 16.3547C162.579 15.8628 162.158 14.8438 161.619 14.7853C160.483 14.633 160.951 15.8745 160.823 15.3943C160.823 15.3943 160.764 15.3592 160.705 15.242C160.647 15.1249 160.647 14.9024 160.787 14.6916C161.373 13.8366 162.849 14.1177 163.083 15.6051H163.095Z" fill="#FAAE32"/>
<path d="M131.905 56.1884C132.092 55.8839 132.514 55.5325 133.041 55.5091C133.58 55.4623 134.048 55.7316 134.282 56.0596C134.54 56.3992 134.54 56.7857 134.446 57.0434C134.247 57.5822 133.849 57.6759 133.872 57.6759C133.872 57.6759 133.919 57.6173 133.978 57.5002C134.036 57.3831 134.083 57.2074 134.072 56.9966C134.06 56.7857 133.966 56.5749 133.79 56.4227C133.615 56.2704 133.345 56.165 133.088 56.1884C132.561 56.2118 132.151 56.7506 131.963 57.1605C131.858 57.3714 131.799 57.5471 131.753 57.6759C131.717 57.8047 131.694 57.875 131.694 57.875C131.694 57.875 131.671 57.8047 131.635 57.6642C131.6 57.5236 131.577 57.3245 131.6 57.0668C131.624 56.8092 131.682 56.5047 131.893 56.1884H131.905Z" fill="#FAAE32"/>
<path d="M165.261 45.4131C165.66 45.2843 166.163 45.3546 166.538 45.6123C166.913 45.8699 167.135 46.3033 167.1 46.6898C167.077 47.0763 166.807 47.416 166.456 47.4862C166.128 47.5448 165.906 47.4042 165.812 47.2871C165.718 47.17 165.742 47.088 165.742 47.088C165.742 47.088 165.777 47.1583 165.894 47.2051C165.999 47.252 166.198 47.252 166.327 47.17C166.444 47.088 166.515 46.9006 166.468 46.7015C166.433 46.5024 166.304 46.3033 166.081 46.1627C165.87 46.0222 165.624 45.9519 165.402 45.9753C165.179 45.9988 164.957 46.1042 164.793 46.233C164.641 46.3618 164.535 46.5141 164.488 46.6195C164.442 46.7366 164.418 46.8069 164.418 46.8069C164.43 46.8069 164.254 46.5141 164.5 46.0339C164.617 45.8114 164.863 45.542 165.25 45.4131H165.261Z" fill="#FAAE32"/>
<path d="M158.351 53.9631C158.222 54.0333 158.058 53.9279 158.07 53.8225C158.07 53.7757 158.105 53.7757 158.105 53.7757C158.082 53.8225 158.14 53.8694 158.211 53.8576C158.374 53.8342 158.129 52.9675 158.058 52.827C157.824 52.4053 157.238 52.4053 156.805 52.6044C156.372 52.8035 155.985 53.2018 155.634 53.518C155.634 53.518 155.657 53.4477 155.692 53.3306C155.845 52.8621 156.055 52.4405 156.465 52.1242C157.074 51.6674 157.894 51.7143 158.339 52.1125C158.749 52.4756 158.749 52.9909 158.62 53.5063C158.574 53.6703 158.527 53.8811 158.363 53.9514L158.351 53.9631Z" fill="#FAAE32"/>
<path d="M191.719 56.8209C192.059 56.6921 192.598 56.7038 192.961 57.02C193.359 57.3714 193.429 57.8633 193.336 58.2147C193.242 58.5895 192.949 58.8471 192.703 58.9174L192.61 58.9525C192.282 58.8003 192.235 58.5192 192.328 58.3904C192.328 58.4958 192.434 58.6129 192.563 58.6597C193.535 57.5119 191.298 56.7038 190.911 58.1093C190.935 58.121 190.747 57.8282 191.005 57.3831C191.134 57.1723 191.356 56.938 191.708 56.8092L191.719 56.8209Z" fill="#FAAE32"/>
<path d="M201.792 56.083C201.71 56.2821 201.558 56.3992 201.441 56.4344C201.324 56.4695 201.265 56.4578 201.265 56.4578C201.265 56.4578 201.312 56.4227 201.371 56.3407C201.418 56.2704 201.453 56.1416 201.429 56.0127C201.406 55.8839 201.324 55.7433 201.218 55.6731C201.113 55.6028 200.949 55.5442 200.75 55.5325C200.352 55.4974 199.883 55.6145 199.508 55.6731C199.134 55.7433 198.888 55.7199 198.888 55.7199C201.183 53.9631 202.073 55.3568 201.781 56.0596L201.792 56.083Z" fill="#FAAE32"/>
<path d="M184.938 65.734C184.938 65.734 184.727 65.6169 184.716 65.2538C184.692 64.2114 186.32 63.7312 187.374 64.7736C186.847 64.8204 184.915 64.6565 184.938 65.734Z" fill="#FAAE32"/>
<path d="M205.166 60.0886C205.622 59.9481 206.091 60.0067 206.454 60.1472C206.817 60.2877 207.075 60.4986 207.25 60.686C207.426 60.8851 207.531 61.0608 207.578 61.2013C207.625 61.3301 207.649 61.4004 207.649 61.4004C207.649 61.4004 207.59 61.3536 207.485 61.2599C207.379 61.1662 207.215 61.0608 207.016 60.9436C206.606 60.7211 205.974 60.5571 205.4 60.7328C204.861 60.8851 204.498 61.4238 204.428 61.8221C204.392 62.0212 204.404 62.2086 204.451 62.3257C204.486 62.4428 204.533 62.5131 204.533 62.5131C204.556 62.5131 204.193 62.3725 204.065 61.8221C204.006 61.5644 204.041 61.2247 204.205 60.8851C204.369 60.5571 204.697 60.2175 205.177 60.0652L205.166 60.0886Z" fill="#FAAE32"/>
<path d="M175.51 61.1076C175.51 61.1076 175.639 60.8616 175.217 60.8499C174.631 60.7913 173.823 60.6274 173.355 60.9553C173.12 61.1193 172.921 61.4238 172.98 61.6932C173.003 61.7869 173.038 61.8337 173.027 61.8455C173.027 61.8455 172.699 61.7283 172.652 61.3067C172.593 60.7562 173.062 60.1589 173.776 60.1003C174.514 60.03 175.639 60.4868 175.615 60.9787C175.592 61.1076 175.475 61.1076 175.486 61.1076H175.51Z" fill="#FAAE32"/>
<path d="M133.439 18.6035C133.17 18.299 132.935 17.7251 132.947 17.2332C132.971 15.3475 135.606 15.4997 135.419 16.7413C135.395 16.8701 135.36 16.9286 135.36 16.9286C135.36 16.9286 135.149 16.2259 134.435 16.3782C133.509 16.5656 133.439 17.8539 133.439 18.6269V18.6035Z" fill="#FAAE32"/>
<path d="M126.048 19.1423C125.884 20.091 125.861 20.9695 125.908 21.7425C125.92 21.9299 125.931 22.1173 125.943 22.3047C125.966 22.4804 125.99 22.656 126.013 22.82C126.048 23.148 126.107 23.4525 126.165 23.7219C126.259 24.2606 126.376 24.6706 126.458 24.9517C126.529 25.2328 126.575 25.385 126.575 25.385C126.575 25.385 126.517 25.2445 126.411 24.9634C126.306 24.694 126.142 24.2841 125.99 23.757C125.896 23.4876 125.826 23.1948 125.756 22.8669C125.72 22.7029 125.674 22.5272 125.638 22.3515C125.615 22.1641 125.58 21.9767 125.556 21.7893C125.439 21.0046 125.381 20.091 125.486 19.0955C125.58 18.0882 125.838 16.9873 126.341 15.8863C130.277 7.26603 147.459 3.07301 159.194 11.6933C145.28 3.50636 127.594 9.64363 126.06 19.1658L126.048 19.1423Z" fill="#FAAE32"/>
<path d="M101.628 59.0814C104.181 59.058 107.73 59.1517 111.607 59.585C115.484 60.0301 118.939 60.7211 121.41 61.3185C122.652 61.623 123.636 61.8807 124.315 62.0798C124.994 62.2789 125.369 62.3843 125.369 62.3843C125.369 62.3843 123.811 62.1735 121.281 61.8338C118.763 61.4942 115.285 61.0725 111.443 60.6392C107.601 60.2058 104.123 59.8427 101.581 59.6085C99.0514 59.3742 97.4702 59.222 97.4702 59.222C98.5712 59.1634 99.5433 59.0931 101.605 59.0697L101.628 59.0814Z" fill="#FAAE32"/>
<path d="M117.686 58.4841C118.775 58.812 119.431 59.0814 119.431 59.0814C119.431 59.0814 118.716 59.0814 117.568 59.0111C116.432 58.9526 114.875 58.8472 113.165 58.6598C111.455 58.4724 109.92 58.2264 108.796 58.039C107.672 57.8516 106.98 57.6993 106.98 57.6993C106.98 57.6993 107.683 57.5822 108.831 57.5002C109.979 57.43 111.572 57.4065 113.305 57.5939C115.039 57.7813 116.585 58.1561 117.674 58.4841H117.686Z" fill="#FAAE32"/>
<path d="M128.754 58.0976C128.836 57.5237 128.953 56.8678 129.023 56.1416C129.222 54.6893 129.386 52.9559 129.515 51.0351C129.632 49.1142 129.703 46.9943 129.679 44.7807C129.644 42.5553 129.527 40.4471 129.375 38.5263C129.199 36.6054 128.988 34.8837 128.766 33.4314C128.672 32.7052 128.543 32.0611 128.449 31.4872C128.356 30.9133 128.262 30.4213 128.18 30.0114C128.028 29.2032 127.934 28.7582 127.934 28.7582C127.934 28.7582 128.075 29.1915 128.332 29.9763C128.461 30.3745 128.613 30.8547 128.766 31.4169C128.918 31.9791 129.117 32.6233 129.281 33.3377C129.644 34.7666 129.984 36.5 130.253 38.4326C130.511 40.3651 130.698 42.5085 130.733 44.7572C130.757 47.006 130.616 49.1494 130.405 51.0936C130.171 53.0379 129.878 54.7713 129.55 56.2119C129.41 56.9381 129.222 57.5823 129.082 58.1562C128.941 58.7301 128.801 59.2103 128.672 59.6085C128.426 60.4049 128.297 60.8383 128.297 60.8383C128.297 60.8383 128.367 60.3932 128.508 59.5734C128.578 59.1634 128.672 58.6715 128.742 58.0976H128.754Z" fill="#FAAE32"/>
<path d="M107.66 25.3498C110.155 25.3381 112.989 24.53 115.355 24.4363C117.018 24.3308 118.072 24.5885 119.173 24.9867C119.548 25.1741 119.466 25.1273 119.782 25.2913C119.782 25.2913 119.677 25.2561 119.489 25.1858C119.068 25.0453 119.232 25.0921 118.634 24.9516C116.175 24.4363 113.551 25.2913 110.623 25.8886C109.71 26.076 108.726 26.24 107.672 26.2634C101.394 26.5093 95.6197 22.9488 89.4707 25.6075C95.1512 22.1641 101.804 25.4084 107.648 25.3381L107.66 25.3498Z" fill="#FAAE32"/>
<path d="M114.289 23.6165C111.022 25.0102 106.442 25.1039 103.374 24.1318C106.665 23.8624 112.193 23.6399 114.289 23.6165Z" fill="#FAAE32"/>
<path d="M91.9185 54.6776C90.4427 47.7087 89.3535 37.8704 89.2598 30.7493C90.7355 37.7181 91.8248 47.5565 91.9185 54.6776Z" fill="#FAAE32"/>
<path d="M93.4061 46.8654C92.2817 43.8436 91.6258 39.4632 91.8718 36.1954C92.9962 39.2172 93.6521 43.5976 93.4061 46.8654Z" fill="#FAAE32"/>
<path d="M94.4484 11.4942C95.1043 11.1194 95.6665 10.85 96.0647 10.686C96.463 10.522 96.6738 10.4283 96.6738 10.4283C96.6738 10.4283 96.4864 10.5689 96.1467 10.8149C95.8071 11.0491 95.3269 11.4239 94.7647 11.8807C91.169 14.797 88.6157 18.4279 86.7886 22.5506C87.5616 17.5377 90.5482 13.6961 94.4484 11.4825V11.4942Z" fill="#FAAE32"/>
<path d="M94.6708 13.6024C93.7924 14.9025 91.4031 18.0882 89.1895 20.3722C89.8688 17.6783 92.2464 14.8674 94.6708 13.6024Z" fill="#FAAE32"/>
<path d="M116.163 5.15771C113.762 5.55593 111.49 6.03614 109.452 6.55148C108.433 6.82087 107.461 7.06683 106.571 7.34792C105.669 7.60559 104.837 7.88669 104.088 8.13265C103.326 8.3669 102.659 8.63628 102.061 8.8471C101.464 9.05792 100.96 9.25703 100.539 9.43272C99.7073 9.76067 99.2505 9.94806 99.2505 9.94806C99.2505 9.94806 99.6838 9.71382 100.469 9.30388C100.855 9.09306 101.347 8.8471 101.921 8.57772C102.495 8.30833 103.139 7.9921 103.889 7.68758C104.626 7.37135 105.435 7.0434 106.336 6.72717C107.215 6.38751 108.187 6.08299 109.206 5.76675C111.256 5.15771 113.551 4.60723 115.999 4.1973C122.605 3.1549 127.993 3.41257 133.837 4.37299C127.981 4.04504 123.003 4.08018 116.175 5.146L116.163 5.15771Z" fill="#FAAE32"/>
<path d="M110.858 8.12101C110.085 8.30841 109.452 8.47238 109.03 8.60122C108.597 8.71834 108.351 8.78861 108.351 8.78861C108.351 8.78861 108.574 8.67149 108.96 8.46067C109.358 8.24985 109.932 7.96875 110.682 7.66423C112.158 7.04347 114.313 6.35245 116.784 6.0245C120.04 5.59114 122.863 5.8371 125.709 6.46957C123.905 6.46957 121.129 6.43443 116.925 6.98491C114.535 7.30115 112.392 7.74622 110.846 8.12101H110.858Z" fill="#FAAE32"/>
<path d="M114.172 9.08138C114.172 9.08138 115.566 8.40206 117.381 8.14439C119.196 7.88672 120.742 8.16782 120.742 8.16782C120.742 8.16782 119.349 8.84713 117.533 9.1048C115.718 9.36248 114.172 9.08138 114.172 9.08138Z" fill="#FAAE32"/>
<path d="M178.368 53.846C183.474 50.8828 189.002 49.8521 195.163 50.9765C187.386 51.3044 182.924 52.4639 178.368 53.846Z" fill="#FAAE32"/>
<path d="M179.691 51.1521C182.467 49.407 187.081 48.6457 190.49 49.5593C184.493 50.3323 181.647 50.8242 179.691 51.1521Z" fill="#FAAE32"/>
<path d="M172.464 37.9875C169.595 38.8191 167.065 39.7678 165.261 40.5408C164.359 40.9273 163.633 41.2436 163.129 41.4895C162.626 41.7238 162.356 41.8526 162.356 41.8526C162.356 41.8526 162.602 41.6769 163.047 41.3607C163.493 41.0444 164.16 40.6111 165.015 40.1192C165.87 39.6155 166.913 39.0768 168.119 38.538C169.325 38.0109 170.696 37.4956 172.16 37.0622C173.635 36.6406 175.076 36.3478 176.388 36.137C177.711 35.9379 178.906 35.8324 179.913 35.7973C181.471 35.727 182.115 35.7739 183.158 35.8207C181.026 36.1018 177.501 36.5352 172.464 37.9875Z" fill="#FAAE32"/>
<path d="M169.407 36.9451C167.99 37.437 166.702 37.9055 165.765 38.2686C164.828 38.6317 164.242 38.8659 164.242 38.8659C164.242 38.8659 164.687 38.4326 165.507 37.847C166.327 37.2613 167.557 36.5469 169.056 36.0315C170.555 35.5279 171.984 35.3288 173.026 35.2702C174.069 35.2234 174.701 35.282 174.701 35.282C174.701 35.282 174.092 35.4576 173.12 35.7504C172.148 36.0315 170.848 36.4532 169.419 36.9451H169.407Z" fill="#FAAE32"/>
<path d="M167.159 35.5865C166.491 35.809 165.835 35.9144 165.355 35.973C164.875 36.0316 164.547 36.0433 164.547 36.0433C164.547 36.0433 164.758 35.8207 165.144 35.5279C165.531 35.2468 166.105 34.8955 166.807 34.6729C167.51 34.4504 168.189 34.3801 168.693 34.3801C169.197 34.3801 169.513 34.427 169.513 34.427C169.513 34.427 169.255 34.6144 168.834 34.8486C168.412 35.0829 167.838 35.3757 167.159 35.5865Z" fill="#FAAE32"/>
<path d="M181.237 48.7276C183.134 47.2753 186.32 46.9942 188.346 47.8141C186.121 48.2591 183.146 48.6105 181.237 48.7276Z" fill="#FAAE32"/>
<path d="M171.656 56.2587C169.255 58.3669 165.402 60.5688 162.275 61.5995C164.676 59.4913 168.529 57.2894 171.656 56.2587Z" fill="#FAAE32"/>
<path d="M151.745 48.6341C153.104 47.2403 154.509 46.1276 155.564 45.3663C156.618 44.6167 157.32 44.2068 157.32 44.2068C157.32 44.2068 156.793 44.7924 155.927 45.7177C155.06 46.643 153.865 47.9079 152.53 49.2782C150.715 51.1405 148.349 53.4595 147.564 54.2091C148.302 52.8154 149.86 50.5666 151.745 48.6341Z" fill="#FAAE32"/>
<path d="M200.48 69.8568C203.76 69.2711 206.688 68.5333 208.784 67.9242C209.838 67.6197 210.682 67.362 211.267 67.1629C211.853 66.9755 212.181 66.8701 212.181 66.8701C212.181 66.8701 211.876 67.0224 211.338 67.3035C210.799 67.5846 209.991 67.9594 208.972 68.381C207.953 68.8027 206.723 69.2594 205.317 69.6928C203.912 70.1144 202.342 70.5127 200.668 70.8172C198.993 71.11 197.376 71.2857 195.901 71.3794C193.019 71.5316 191.005 71.4145 188.405 71.1217C190.794 71.0163 194.741 70.8875 200.469 69.8685L200.48 69.8568Z" fill="#FAAE32"/>
<path d="M138.51 10.3463C133.111 11.459 129.574 14.5862 128.028 18.4629C127.759 19.1305 127.595 19.6927 127.489 20.0792C127.395 20.4775 127.349 20.7 127.349 20.7C127.349 20.7 127.325 20.4775 127.313 20.0675C127.313 19.6576 127.325 19.0603 127.466 18.3341C128.391 13.169 133.755 9.92464 138.51 10.358V10.3463Z" fill="#FAAE32"/>
<path d="M112.333 29.6015C115.952 27.9032 119.911 27.9969 123.448 30.0114C120.895 29.66 117.99 29.2384 112.333 29.6015Z" fill="#FAAE32"/>
<path d="M201.616 50.3908C204.767 49.3367 208.948 49.571 211.665 50.6134C208.995 50.8828 204.79 50.8476 201.616 50.3908Z" fill="#FAAE32"/>
<path d="M150.328 15.4997C150.691 15.7105 150.714 16.1907 150.363 16.4367C149.836 17.0809 148.84 16.6592 148.852 16.0151C148.864 15.2538 149.836 14.9961 150.328 15.5114V15.4997Z" fill="#FAAE32"/>
<path d="M136.496 40.7984C136.625 40.1777 137.702 40.1426 137.866 40.7633C137.878 40.8102 137.89 40.8687 137.901 40.9156C138.019 41.3489 137.702 41.794 137.199 41.8057C136.695 41.8174 136.367 41.3958 136.461 40.9507C136.461 40.9039 136.484 40.8453 136.496 40.7984Z" fill="#FAAE32"/>
<path d="M170.04 44.64C171.059 44.6166 171.106 46.0807 170.075 46.1041C169.056 46.1275 169.009 44.6635 170.04 44.64Z" fill="#FAAE32"/>
<path d="M190.841 40.939C190.818 42.0048 189.19 41.8994 189.213 40.9858C189.237 39.92 190.865 40.0254 190.841 40.939Z" fill="#FAAE32"/>
<path d="M189.353 65.406C189.541 65.2772 189.74 65.3474 189.939 65.4646C190.607 65.8862 190.22 66.6241 189.623 66.6358C189.353 66.6358 189.107 66.4953 188.99 66.2727C188.803 65.9096 189.025 65.6403 189.353 65.406Z" fill="#FAAE32"/>
<path d="M199.461 63.2041C199.66 62.9464 200 62.9347 200.211 63.1807C200.269 63.2509 200.304 63.3329 200.34 63.4149C200.457 63.7077 200.176 64.024 199.859 64.0357C199.543 64.0357 199.239 63.7429 199.344 63.4383C199.379 63.3564 199.403 63.2744 199.461 63.1924V63.2041Z" fill="#FAAE32"/>
<path d="M177.325 40.365C178.297 40.3416 178.332 41.7003 177.36 41.7237C176.388 41.7471 176.353 40.3885 177.325 40.365Z" fill="#FAAE32"/>
<path d="M129.996 23.4524C130.089 23.6633 130.043 23.8155 129.949 24.0146C129.797 24.3543 129.258 24.3777 128.988 24.1552C128.731 23.9327 128.731 23.429 129.094 23.2651C129.41 23.1245 129.832 23.0894 129.996 23.4407V23.4524Z" fill="#FAAE32"/>
<path d="M109.839 35.5044C110.202 35.5044 110.389 35.7972 110.354 36.1017C110.178 37.5658 108.48 35.5395 109.839 35.5044Z" fill="#FAAE32"/>
<path d="M110.998 50.3792C110.94 49.7935 112.099 49.571 112.087 50.508C112.076 51.0819 111.104 51.3044 110.998 50.3792Z" fill="#FAAE32"/>
<path d="M101.991 39.3696C101.054 39.6858 101.019 38.0812 101.968 38.3506C102.027 38.3623 102.073 38.3857 102.132 38.3974C102.601 38.5263 102.729 39.1236 101.991 39.3696Z" fill="#FAAE32"/>
<path d="M106.559 65.4764C106.653 56.212 99.2621 51.0937 90.3373 49.7702C88.7093 44.4879 83.9775 42.3446 81.2954 41.5247C78.8709 40.7868 76.1771 40.5526 74.2211 40.9274C73.8581 40.5409 73.4364 40.2363 72.9211 40.0138C72.5346 39.8381 72.1246 39.6976 71.7147 39.5687C68.6578 38.6435 64.863 38.8894 62.3097 40.1543C62.2746 40.1543 62.1574 40.1309 62.0989 40.1192C58.2455 38.9597 52.9047 40.8688 50.328 43.387C49.3558 44.3357 48.29 45.8231 48.7819 47.4511C45.0808 46.6196 41.0284 47.9079 37.8426 49.8522C32.1387 53.3307 28.8827 60.5338 29.1403 60.5338C27.6646 60.5573 25.8726 60.9086 24.6194 61.7753C22.8976 62.97 21.6679 64.7971 20.8597 66.7297C20.3912 67.854 20.0164 68.7325 19.5713 69.1893L19.2434 69.5055C17.3694 71.356 15.0387 73.6517 15.1441 79.0745C15.2495 84.4036 17.955 88.6317 22.0309 89.8615C22.9328 90.1309 23.8815 90.2481 24.8536 90.1661C25.8726 91.1968 30.5107 91.7707 33.5442 89.7561C34.0244 89.8147 34.5163 89.8498 35.1605 89.885C38.0183 90.0841 41.6843 91.1148 44.7646 88.1281L45.1745 88.2452C45.6547 88.3858 46.1232 88.5498 46.6034 88.702L46.8143 88.7723C47.3647 88.9597 47.9152 89.1354 48.4774 89.2994C49.5549 89.6273 50.9839 90.0138 52.4713 90.0841L53.2912 90.1778C54.9895 90.3886 56.1139 90.5174 57.8824 88.702C58.023 88.7606 58.7843 88.9948 59.3933 89.1705C60.7754 89.5922 60.9276 89.6156 60.9745 89.6156C63.7152 90.0021 66.5847 90.2246 69.0091 88.4443C69.4191 89.0183 70.2389 89.4985 71.457 89.8615C72.6283 90.2129 73.9049 90.4003 74.7599 90.5174C78.379 91.0328 81.2251 89.4048 81.2603 89.0768H81.3188C81.5999 88.8543 81.8342 88.6786 81.8576 88.6552C86.2614 89.639 92.6447 90.5057 97.1656 86.7343C98.9225 89.3345 102.694 90.33 106.067 88.5849C106.442 88.866 106.852 89.0651 107.285 89.1939C110.483 90.1661 114.582 86.8983 115.999 84.2396C119.513 77.6104 116.924 73.8508 114.254 73.8976C114.793 67.491 110.002 64.2232 106.571 65.4764H106.559Z" fill="white"/>
<path d="M28.7889 79.1213C28.707 78.9925 28.6367 78.8988 28.5664 78.8519C28.6484 78.9339 28.707 79.0393 28.7889 79.1213Z" fill="#FAAE32"/>
<path d="M114.231 73.9093C114.769 67.5027 109.979 64.2349 106.547 65.4882C106.641 56.2237 99.2387 51.1054 90.3256 49.7819C88.6976 44.4996 83.9658 42.3563 81.2837 41.5364C78.8592 40.7985 76.1654 40.5643 74.2094 40.9391C73.8463 40.5526 73.4247 40.2481 72.9094 40.0255C72.5229 39.8498 72.1129 39.7093 71.703 39.5805C68.6461 38.6552 64.8513 38.9011 62.298 40.1661C62.2628 40.1661 62.1457 40.1426 62.0872 40.1309C58.2338 38.9714 52.893 40.8805 50.328 43.3987C49.3558 44.3474 48.29 45.8348 48.7819 47.4629C45.0808 46.6313 41.0284 47.9196 37.8426 49.8639C32.1387 53.3425 28.8827 60.5455 29.1403 60.5455C27.6646 60.569 25.8726 60.9203 24.6194 61.7871C22.8976 62.9817 21.6679 64.8088 20.8597 66.7414C20.3912 67.8658 20.0164 68.7442 19.5713 69.201L19.2434 69.5172C17.3694 71.3678 15.0387 73.6634 15.1441 79.0862C15.2495 84.4153 17.955 88.6435 22.0309 89.8733C22.9328 90.1426 23.8815 90.2598 24.8536 90.1778C25.8726 91.2085 30.5107 91.7824 33.5442 89.7679C34.0244 89.8264 34.5163 89.8616 35.1605 89.8967C38.0183 90.0958 41.6843 91.1265 44.7646 88.1398L45.1745 88.257C45.6547 88.3975 46.1232 88.5615 46.6034 88.7137L46.8143 88.784C47.3647 88.9714 47.9152 89.1471 48.4774 89.3111C49.5549 89.639 50.9839 90.0255 52.4713 90.0958L53.2912 90.1895C54.9895 90.4003 56.1139 90.5292 57.8824 88.7137C58.023 88.7723 58.7843 89.0066 59.3933 89.1822C60.7754 89.6039 60.9276 89.6273 60.9745 89.6273C63.7152 90.0138 66.5847 90.2363 69.0091 88.4561C69.4191 89.03 70.2389 89.5102 71.457 89.8733C72.6283 90.2246 73.9049 90.412 74.7599 90.5291C78.379 91.0445 81.2251 89.4165 81.2603 89.0885H81.3188C81.5999 88.866 81.8342 88.6786 81.8576 88.6669C86.2614 89.6507 92.6447 90.5174 97.1656 86.7461C98.9225 89.3462 102.694 90.3418 106.067 88.5966C106.442 88.8777 106.852 89.0768 107.285 89.2057C110.483 90.1778 114.582 86.91 115.999 84.2513C119.513 77.6221 116.924 73.8625 114.254 73.9093H114.231ZM32.8766 88.6435C31.9513 88.8191 29.9953 89.9787 27.2312 89.5336C29.0583 88.5966 30.2764 86.6524 30.499 84.3333C30.6864 82.3774 30.0773 80.5385 28.789 79.1213C29.9953 81.0656 31.8459 90.822 22.0426 88.7606C15.6828 87.4957 13.4926 75.1977 20.52 70.056C24.9942 70.8173 28.8124 71.9885 31.4477 75.7599C34.1181 79.5781 34.5631 83.9468 32.8883 88.6435H32.8766ZM34.1298 88.5498C36.0155 84.2162 35.5587 78.4303 33.0288 74.7409C30.6395 71.2389 25.8726 68.3108 21.4453 68.791C21.7967 68.2523 22.1129 67.7018 22.4643 67.0927C24.0103 64.4575 25.4627 61.9627 29.0232 61.7871C29.8196 61.7519 30.5458 62.0213 31.3422 62.0682C34.4577 62.2438 38.3697 66.5774 38.4282 66.5071C39.0138 65.8512 34.0829 61.9862 31.5765 60.6158C32.0099 60.6861 32.4549 60.7915 32.8766 60.9203C40.1968 63.134 46.6971 73.7219 44.4835 85.0009L44.2024 86.5821C40.677 90.4706 37.5029 87.6362 34.1298 88.5381V88.5498ZM57.1445 87.8705C56.5941 88.257 55.8445 88.784 54.521 88.8543C54.9309 88.8309 55.4697 87.402 55.5751 87.074C56.2076 85.1883 55.821 83.4432 55.3643 81.5458C55.5048 85.118 54.521 87.3668 53.4552 88.8074C52.7173 88.7137 52.0614 88.5263 51.4992 88.3624H51.3118L51.2415 88.3389C52.2839 86.5001 52.8812 84.3567 53.0101 82.2485C53.3029 77.6104 51.4875 76.2987 51.4289 75.959C52.0262 80.0232 51.9677 84.1576 50.0117 87.8939L49.6369 87.7767C48.3837 87.402 47.0134 87.0272 45.7133 86.992L45.6547 86.9686C47.0017 83.7009 47.1188 79.4493 46.1349 75.2563C45.6196 72.375 44.5303 70.4776 44.5303 70.501C42.2347 65.371 38.2291 60.9321 32.7712 59.2923C32.3846 59.1752 31.9864 59.0698 31.6116 59.0581C31.8576 58.8707 32.0918 58.6364 32.2675 58.3553C39.9274 60.2996 42.633 64.8908 43.3825 65.8278C44.343 67.0225 41.4149 59.7374 33.0874 57.0318C33.1108 56.8796 40.5599 47.7088 47.2945 49.7468C52.4947 51.3162 60.5177 62.1619 59.4285 76.5212C59.2645 78.6645 58.7843 80.7845 58.3158 82.8224C57.9644 84.3333 57.5779 86.0433 57.3671 87.7065L57.1445 87.8587V87.8705ZM82.3964 85.7974L81.5179 87.5074C81.2603 87.5308 81.1431 87.7182 81.108 87.8002C79.6674 88.702 78.5547 89.2525 76.2591 88.8426L76.1888 88.8191C89.4121 70.9695 86.0623 53.1199 85.0902 52.546C85.0902 52.546 89.1192 68.6388 74.5725 88.3389C73.413 88.7723 72.0895 88.4678 71.0705 88.1633C70.6957 88.0461 70.3444 87.929 69.9578 87.7885C69.9578 87.7885 69.3488 87.5776 69.3488 87.5659C69.3137 87.4957 71.5039 82.1548 70.5552 79.3673C70.4381 80.5737 69.7822 85.6568 67.3577 87.4957C66.0342 88.5029 64.1837 88.7254 61.4664 88.2804L61.3961 88.257C69.5596 69.8217 59.6393 54.174 61.1385 58.4139C64.6873 68.428 64.2539 78.5708 59.9438 87.9056L58.9717 87.683C60.3069 84.2748 60.8222 80.3043 61.115 77.2239C61.9817 68.0766 59.5573 59.2103 53.3146 51.6442C51.5929 49.5594 50.1054 47.7674 50.5973 46.0457C51.0776 44.3122 53.42 42.8131 58.1635 41.1616C59.405 40.7283 60.5528 40.6697 61.5835 40.9742C65.554 42.1689 66.1982 47.8728 66.9243 48.0836C67.5334 47.9431 66.5144 43.387 64.4296 41.4076C64.1134 41.1031 63.7269 40.8337 63.3052 40.6931C66.2099 39.7913 70.6137 39.475 72.8508 41.4661C72.8625 41.4896 72.9094 41.5598 72.9328 41.6067L73.0733 41.8761C77.606 51.0468 76.0014 61.4942 76.6456 61.6934C76.7276 61.6934 76.9033 61.5411 76.9033 61.4591C77.2195 58.1914 77.1961 54.9002 76.8564 51.6442C76.6105 49.2783 76.2005 46.9241 75.5915 44.6402C75.4744 44.1834 75.3455 43.7383 75.205 43.2933C75.1347 43.0473 74.9356 42.7311 75.1464 42.5202C75.5095 42.1455 76.1771 42.2157 76.6456 42.204C77.2664 42.1806 77.8754 42.1923 78.4844 42.2509C80.1125 42.4031 81.5531 42.9068 83.0405 43.5392C84.0244 43.9609 84.9731 44.4879 85.8164 45.1672C87.339 46.3853 88.4282 48.0368 89.049 49.8873C89.7283 51.9253 89.8923 54.1038 89.8337 56.2471C89.7751 58.8004 89.4121 61.3537 88.967 63.8719C88.4634 66.7297 87.8309 69.5523 87.2101 72.3867C87.1984 72.457 87.175 72.539 87.1633 72.6093C85.5704 79.8592 84.3055 82.2251 82.3964 85.8091V85.7974ZM85.5704 88.0696C90.0679 81.4169 92.8321 73.0895 93.4997 65.6873C93.8862 61.3303 93.3123 61.6348 93.3123 61.6348C93.3123 61.6348 93.0663 63.5205 92.9609 64.4692C92.0005 73.0426 88.8616 81.1359 83.8135 87.847L83.0288 87.5542C86.3668 83.0684 90.677 69.9389 91.8365 56.376C91.9653 54.9236 91.7545 52.4992 91.6374 51.8081C92.9258 52.2532 95.8421 53.0848 95.7016 53.0379C98.1846 53.7875 100.574 54.6777 102.624 57.3364C106.699 62.6186 104.814 69.9271 103.807 72.8318C99.4612 85.446 94.8466 89.3228 85.5821 88.0813L85.5704 88.0696ZM102.905 88.0813C106.348 86.8983 109.581 80.1989 109.428 80.1286C109.358 80.1052 105.341 86.8281 101.78 87.8822C101.628 87.847 101.476 87.8119 101.324 87.765C100.281 87.4488 99.3207 86.8046 98.5594 85.9496C103.221 81.335 106.407 70.6767 106.477 66.6828C110.225 66.4837 112.064 68.791 111.888 72.5039C111.888 72.5039 112.204 70.1848 112.064 69.6695C114.746 74.9283 109.522 87.847 102.905 88.093V88.0813ZM107.18 87.9407C111.209 85.1883 113.621 78.3132 114.113 74.7409C120.438 77.2708 114.266 89.6273 107.18 87.9407Z" fill="#FAAE32"/>
<path d="M49.9647 61.6465C47.9033 58.0508 45.0807 55.4507 41.3561 53.7055C41.2156 53.647 50.0701 61.8339 49.9647 61.6465Z" fill="#FAAE32"/>
<path d="M64.2422 60.1473C66.9477 63.6962 66.3621 74.4247 66.3621 74.4247C66.4441 74.4247 66.8658 70.9813 66.8775 70.8993C67.791 64.0124 65.0503 60.8267 64.2422 60.1473Z" fill="#FAAE32"/>
<path d="M94.2493 69.2712C94.2493 69.1424 94.2961 68.1351 94.0736 68.2054C93.9916 68.2288 93.9448 68.5685 93.933 68.6388C92.4924 76.1347 89.5995 83.1035 88.4868 84.427C88.8967 83.9468 89.3887 83.6657 89.6932 83.0684C89.74 82.9747 92.5276 78.606 93.7808 72.7967C94.0268 71.6371 94.2259 70.4542 94.2493 69.2712Z" fill="#FAAE32"/>
<path d="M110.108 86.2073C110.108 86.2073 110.307 86.1956 110.342 86.1605C112.087 84.6847 113.375 82.6117 113.914 80.2692C113.984 79.953 110.084 86.1956 110.108 86.2073Z" fill="#FAAE32"/>
<path d="M94.0737 80.7727C100.715 73.6048 99.6254 67.4441 99.6254 67.4441C98.6415 75.0103 95.9009 76.8842 94.0737 80.7727Z" fill="#FAAE32"/>
<path d="M101.757 74.8463C100.984 76.6735 99.4376 79.0979 97.915 82.0026C100.621 79.4493 101.932 74.413 101.757 74.8463Z" fill="#FAAE32"/>
<path d="M27.395 74.5769C31.2367 77.4347 30.897 78.6411 31.0961 81.4755C31.6817 79.461 31.1664 77.9735 31.1664 77.9735C29.6438 74.7994 27.395 74.5769 27.395 74.5769Z" fill="#FAAE32"/>
<path d="M30.0537 71.3795C30.0537 71.3795 33.3917 73.3238 34.9612 75.9239C36.5306 78.5241 36.3901 83.5369 36.3901 83.5369C36.8234 82.1783 37.3974 80.316 36.1441 76.8375C34.8675 73.2652 30.1357 71.4615 30.0537 71.3795Z" fill="#FAAE32"/>
<path d="M36.8 70.1496C34.3287 67.5964 30.0185 67.2567 29.9365 67.2333C29.9365 67.2333 33.1691 67.9009 36.0621 70.0091C38.6154 71.8597 39.6578 77.3527 39.6578 77.3527C39.5172 75.7364 39.2596 72.7029 36.7882 70.1496H36.8Z" fill="#FAAE32"/>
<path d="M55.6689 47.6971C56.9456 48.7395 58.5267 51.4685 58.9015 52.0073C58.1519 48.7395 55.5869 47.6386 55.6689 47.6971Z" fill="#FAAE32"/>
<path d="M128.578 61.4474C131.893 60.7212 136.507 60.9438 139.529 63.7547C139.892 63.7782 141.579 66.6126 142.247 68.182C168.318 60.7681 178.039 88.3507 157.028 92.977C149.169 94.7105 140.537 92.7194 138.487 90.9742C135.641 95.0384 131.026 99.0089 127.266 99.8405C123.858 100.59 120.426 99.7702 117.358 97.4629C107.32 89.9436 113.364 64.7971 128.59 61.4474H128.578Z" fill="white"/>
<path d="M142.247 68.182C141.591 66.6126 139.892 63.7782 139.529 63.7547C136.507 60.9438 131.893 60.7212 128.578 61.4474C113.364 64.7971 107.32 89.9436 117.346 97.4629C120.415 99.7702 123.846 100.59 127.255 99.8405C131.014 99.0089 135.629 95.0384 138.475 90.9742C140.525 92.7194 149.157 94.7105 157.016 92.977C178.028 88.339 168.306 60.7681 142.235 68.182H142.247ZM127.067 98.5873C120.754 99.981 115.144 96.0223 113.844 91.1382C108.445 70.8641 129.164 55.9309 138.51 63.9773C147.177 71.4263 140.056 95.7294 127.067 98.5873ZM156.992 91.6418C151.511 92.8482 144.987 91.9229 139.318 90.2949C139.963 90.4823 142.926 80.1989 143.16 78.7348C143.184 78.7348 143.207 78.7348 143.23 78.7348C143.629 75.7833 143.722 72.1291 143.148 69.0722C143.102 68.8028 154.357 65.1134 163.059 72.0471C170.239 77.7627 169.946 88.7957 156.981 91.6536L156.992 91.6418Z" fill="#FAAE32"/>
<path d="M154.486 90.6463C150.902 91.2671 147.552 91.0211 145.21 90.5058C144.039 90.2481 143.113 89.9202 142.493 89.6742C142.176 89.5454 141.942 89.4282 141.778 89.358C141.614 89.2877 141.532 89.2408 141.532 89.2408C141.532 89.2408 141.614 89.2877 141.766 89.3814C141.919 89.4751 142.141 89.6156 142.446 89.7796C143.043 90.0958 143.945 90.5175 145.116 90.8923C147.283 91.5599 149.567 91.7941 151.898 91.7239C152.788 91.677 153.701 91.595 154.627 91.4311C156.489 91.1031 158.199 90.5175 159.663 89.7796C162.568 88.339 164.336 86.4533 165.496 84.0991C163.001 87.9056 158.913 89.885 154.498 90.6463H154.486Z" fill="#FAAE32"/>
<path d="M142.633 86.465C142.938 85.8911 143.242 85.2352 143.5 84.5208C144.168 82.5999 144.308 80.9016 144.191 79.1565C143.535 81.9792 142.727 84.7433 141.368 87.7182C141.169 88.1516 141.005 88.5147 140.888 88.7606C140.771 89.0066 140.701 89.1471 140.701 89.1471C140.701 89.1471 140.806 89.03 140.982 88.8309C141.169 88.6318 141.415 88.3156 141.708 87.9173C142.001 87.5191 142.317 87.0272 142.633 86.4533V86.465Z" fill="#FAAE32"/>
<path d="M124.315 76.5095C124.889 73.7571 132.923 72.3516 128.93 67.1396C133.017 73.9562 121.41 71.8246 123.917 79.4962C124.619 81.6044 125.182 82.9045 123.846 84.6496C123.109 85.61 117.569 89.8499 120.965 92.1572C119.15 90.5995 120.602 88.339 122.464 86.8281C128.297 82.026 123.53 79.6836 124.315 76.5095Z" fill="#FAAE32"/>
<path d="M119.232 88.6903C119.232 88.6903 119.126 88.4092 119.232 87.9173C119.653 85.6334 123.788 85.2001 123.905 82.4477C123.94 81.6395 120.298 74.9166 126.974 72.6678C119.454 73.8625 123.144 82.1666 123.132 82.4359C123.132 84.3333 120.356 85.0478 119.361 86.992C118.845 87.9876 119.22 88.702 119.22 88.702L119.232 88.6903Z" fill="#FAAE32"/>
<path d="M144.894 74.0616C151.956 71.4849 154.17 76.8491 156.852 77.505C158.456 77.915 161.385 76.6032 162.052 78.5591C159.745 77.0717 158 78.196 156.618 78.1609C156.02 78.1609 155.482 77.8915 155.001 77.423C154.509 76.9663 154.088 76.3923 153.584 75.877C153.069 75.3617 152.46 74.9634 151.839 74.7175C149.953 73.9562 147.529 74.1319 145.713 75.959C150.972 72.1408 153.666 77.9149 155.435 78.688C155.809 78.8519 156.219 78.9339 156.606 78.9222C157.765 78.8988 161.595 77.0014 163.868 80.7962C163.504 79.8943 163.013 79.1799 162.076 78.5708C161.783 76.3455 158.316 77.2708 157.016 76.8491C156.524 76.6969 156.055 76.3923 155.599 76.0058C155.06 75.5608 150.785 70.6299 144.882 74.0616H144.894Z" fill="#FAAE32"/>
<path d="M159.475 81.6981C157.063 82.3891 154.931 82.0026 153.104 80.8196C152.354 80.3277 151.78 79.707 151.253 79.0628C150.199 77.8096 148.7 76.8257 147.47 77.7861C148.829 77.1888 149.871 78.2546 150.726 79.4727C150.972 79.8007 151.218 80.1755 151.546 80.5268C151.862 80.8899 152.249 81.1944 152.67 81.4872C154.568 82.7053 157.074 83.0333 159.487 81.6981H159.475Z" fill="#FAAE32"/>
<path d="M130.85 75.7833C127.079 77.0365 129.129 81.171 129.176 81.4287C129.386 82.4828 128.426 83.3963 127.243 85.0946C126.564 86.055 126.177 86.6758 126.177 86.6758C126.81 86.1019 128.11 84.8135 128.976 83.8531C129.632 83.1153 130.148 82.272 129.96 81.2881C129.831 80.5854 127.887 77.7276 130.85 75.7833Z" fill="#FAAE32"/>
<path d="M119.278 76.5914C120.04 76.4275 119.782 75.2445 119.021 75.4085C118.259 75.5725 118.517 76.7554 119.278 76.5914Z" fill="#FAAE32"/>
<path d="M124.818 71.848C125.146 71.7777 125.404 71.4147 125.31 71.075C125.217 70.7353 124.889 70.5011 124.537 70.5831C123.682 70.7705 124.01 72.0237 124.818 71.848Z" fill="#FAAE32"/>
<path d="M117.732 81.5458C118.505 81.3701 118.248 80.1754 117.463 80.3394C116.69 80.5151 116.948 81.7097 117.732 81.5458Z" fill="#FAAE32"/>
<path d="M117.873 91.7355C118.564 91.5833 118.33 90.5057 117.639 90.658C116.948 90.8103 117.182 91.8878 117.873 91.7355Z" fill="#FAAE32"/>
<path d="M127.384 81.253C127.595 80.925 127.372 80.4331 126.962 80.4331C126.95 80.4331 126.939 80.4331 126.927 80.4331C125.791 80.4331 126.751 82.2485 127.384 81.253Z" fill="#FAAE32"/>
<path d="M124.83 90.2716C124.585 90.1544 124.339 90.213 124.139 90.4824C123.975 90.5995 123.893 90.7752 123.94 90.9743C124.233 92.0284 125.873 90.7518 124.83 90.2598V90.2716ZM124.128 90.5058C124.128 90.5058 124.104 90.5292 124.093 90.5409C124.093 90.5409 124.104 90.5292 124.128 90.5058Z" fill="#FAAE32"/>
<path d="M150.187 71.3678C150.105 71.0633 149.813 70.8525 149.485 70.9227C149.18 70.993 148.958 71.321 149.04 71.6255C149.25 72.4219 150.375 72.0588 150.187 71.3678Z" fill="#FAAE32"/>
<path d="M154.814 72.211C155.446 72.0705 155.236 71.0867 154.591 71.2272C153.959 71.3678 154.17 72.3516 154.814 72.211Z" fill="#FAAE32"/>
<path d="M157.613 75.0338C157.449 74.413 156.582 74.6941 156.723 75.2329C156.887 75.8537 157.754 75.5726 157.613 75.0338Z" fill="#FAAE32"/>
<path d="M152.472 77.7393C152.413 77.4699 152.062 77.1302 151.605 77.4113C151.136 77.7159 151.3 78.3249 151.816 78.3835C152.343 78.4537 152.518 77.997 152.46 77.7276L152.472 77.7393Z" fill="#FAAE32"/>
<path d="M161.865 75.5022C162.462 75.3734 162.263 74.4364 161.654 74.5652C161.056 74.6941 161.256 75.6311 161.865 75.5022Z" fill="#FAAE32"/>
<path d="M147.587 82.3423C147.751 82.963 148.618 82.6819 148.477 82.1432C148.313 81.5224 147.447 81.8035 147.587 82.3423Z" fill="#FAAE32"/>
<path d="M150.679 85.7388C151.277 85.61 151.066 84.6847 150.48 84.8135C149.883 84.9424 150.094 85.8677 150.679 85.7388Z" fill="#FAAE32"/>
<path d="M145.28 72.0705C144.777 71.8128 144.449 72.1759 144.542 72.457C144.8 73.312 145.936 72.4922 145.28 72.0705Z" fill="#FAAE32"/>
<path d="M161.631 82.8224C162.251 82.6819 162.04 81.7215 161.42 81.862C160.799 82.0026 161.01 82.963 161.631 82.8224Z" fill="#FAAE32"/>
<path d="M164.558 79.3439C164.828 79.2854 165.062 78.9223 164.875 78.6529C164.102 77.5754 163.516 79.5665 164.558 79.3439Z" fill="#FAAE32"/>
<path d="M133.767 84.3333C133.989 84.2865 134.106 84.0288 134.001 83.8297C133.497 82.8459 132.947 84.509 133.767 84.3333Z" fill="#FAAE32"/>
<path d="M133.966 78.6646C133.966 78.6646 133.989 78.688 133.989 78.7115C134.2 79.0394 134.669 78.9457 134.727 78.5475C134.727 78.5358 134.727 78.5124 134.727 78.5006C134.762 78.2313 134.47 78.0321 134.235 78.079C133.989 78.1376 133.814 78.4421 133.966 78.6646Z" fill="#FAAE32"/>
<path d="M122.242 69.4235C122.019 69.6226 122.101 69.9974 122.394 70.0911C123.436 70.3956 123.062 68.6973 122.242 69.4235Z" fill="#FAAE32"/>
<path d="M155.716 83.2792C155.388 83.408 155.423 83.8882 155.681 84.0522C155.938 84.2162 156.383 84.0522 156.372 83.7008C156.372 83.6657 156.372 83.6188 156.372 83.5837C156.348 83.3026 156.149 83.1152 155.727 83.2792H155.716Z" fill="#FAAE32"/>
<path d="M118.6 85.1884C118.119 85.1532 117.885 85.5397 118.108 85.7857C118.201 85.8911 118.307 85.9731 118.447 86.0199C119.033 86.2307 119.255 85.2235 118.6 85.1766V85.1884Z" fill="#FAAE32"/>
<path d="M130.077 65.4882C130.288 65.1602 130.054 64.7503 129.679 64.7152C128.484 64.598 129.456 66.4603 130.077 65.4882Z" fill="#FAAE32"/>
<path d="M134.376 66.7414C134.891 66.6243 134.716 65.8278 134.2 65.9449C133.685 66.0621 133.861 66.8585 134.376 66.7414Z" fill="#FAAE32"/>
<path d="M132.033 70.8642C131.764 71.0282 131.846 71.4264 132.162 71.4615C132.338 71.4732 132.56 71.3678 132.584 71.1687C132.666 70.9345 132.326 70.6885 132.033 70.8642Z" fill="#FAAE32"/>
<path d="M144.718 89.2291C144.554 89.194 144.402 89.1706 144.261 89.1354C144.121 89.1003 143.992 89.0651 143.886 89.03C143.43 88.9129 143.172 88.8426 143.172 88.8426C143.172 88.8426 143.406 88.948 143.839 89.1471C143.945 89.194 144.074 89.2526 144.203 89.3111C144.331 89.3697 144.484 89.4165 144.648 89.4751C144.964 89.5805 145.327 89.7328 145.737 89.8382C147.833 90.4238 149.883 90.6815 152.378 90.4355C153.69 90.2949 154.908 90.0021 155.985 89.6625C156.524 89.4751 157.028 89.2994 157.484 89.0886C157.719 88.9832 157.941 88.9012 158.152 88.7958C159.827 87.9291 160.131 87.6714 161.057 86.9921C159.686 87.6714 159.171 87.9408 157.297 88.5849C156.84 88.7489 156.325 88.8778 155.798 89.0183C154.732 89.276 153.549 89.5102 152.296 89.6391C149.286 89.9319 147.166 89.721 144.718 89.2408V89.2291Z" fill="#FAAE32"/>
<path d="M138.534 67.9126C138.194 67.1044 137.807 66.4603 137.456 65.9684C137.105 65.4647 136.765 65.1368 136.543 64.9025C136.308 64.6917 136.179 64.5746 136.179 64.5746C136.179 64.5746 136.297 64.6917 136.519 64.926C136.73 65.1719 137.034 65.5233 137.351 66.0386C142.282 73.6868 137.21 91.6418 126.47 95.952C122.57 97.5097 119.044 96.4439 117.053 93.8906C124.69 105.205 145.737 85.118 138.534 67.9243V67.9126Z" fill="#FAAE32"/>
<path d="M137.409 71.3209C139.037 85.9379 128.461 97.8962 119.173 94.8042C128.45 98.9269 140.572 86.2542 137.409 71.3209Z" fill="#FAAE32"/>
<path d="M126.283 93.3284C131.858 90.8805 135.348 86.301 136.121 80.152C134.317 85.7505 131.413 89.8147 126.283 93.3284Z" fill="#FAAE32"/>
<path d="M141.122 77.0834C140.595 80.0934 139.916 83.0567 138.709 86.2541C138.393 87.1091 138.381 87.1091 138.112 87.7885C138.393 87.4137 138.627 87.1326 139.072 86.4298C140.7 83.818 141.508 80.6556 141.122 77.0951V77.0834Z" fill="#FAAE32"/>
<path d="M125.311 98.0251C126.142 98.0251 126.868 98.0017 127.7 97.7909C127.981 97.7323 128.285 97.6386 128.602 97.5332C131.096 96.6665 132.935 95.015 134.13 92.5789C131.167 95.7763 128.637 97.053 125.322 98.0251H125.311Z" fill="#FAAE32"/>
<path d="M115.882 92.2626C114.488 88.5732 114.313 85.7856 114.652 82.635C113.259 85.9965 113.739 89.4282 115.882 92.2626Z" fill="#FAAE32"/>
<path d="M127.512 64.0241C129.035 63.6376 130.897 63.4151 130.897 63.4151C130.897 63.3799 130.253 63.298 129.222 63.3917C128.356 63.4736 127.899 63.5908 127.419 63.6962C125.931 64.071 124.643 64.6449 123.343 65.4999C122.956 65.781 122.546 66.0386 121.914 66.636C121.152 67.3387 120.778 67.8658 120.813 67.9009C120.813 67.9009 123.507 65.1719 127.501 64.0358L127.512 64.0241Z" fill="#FAAE32"/>
<path d="M161.947 72.703C161.947 72.703 162.404 73.0427 163.071 73.64C166.96 77.06 165.906 81.1359 165.906 81.1359C166.292 81.335 167.311 76.5095 163.235 73.4292C162.497 72.867 161.958 72.6679 161.935 72.703H161.947Z" fill="#FAAE32"/>
<path d="M144.542 84.9424C144.847 84.0172 144.94 82.3306 144.683 82.354C144.577 82.354 144.624 83.5135 144.191 84.8253C143.769 86.1488 143.043 87.0389 143.125 87.1092C143.359 87.32 144.32 85.6217 144.542 84.9424Z" fill="#FAAE32"/>
</g>
<defs>
<clipPath id="clip0_6013_8511">
<rect width="222.863" height="100" fill="white" transform="translate(0 0.109863)"/>
</clipPath>
</defs>
</svg>
