<svg width="138" height="101" viewBox="0 0 138 101" fill="none" xmlns="http://www.w3.org/2000/svg">
<g clip-path="url(#clip0_6013_8750)">
<path d="M29.7034 75.4614H95.1463C97.1548 75.4614 98.7951 73.8323 98.7951 71.8127V23.7319C98.7951 21.7234 97.166 20.0831 95.1463 20.0831H87.9939C91.1852 18.242 93.3499 14.7718 93.3499 10.7883C93.3499 4.89679 88.6188 0.0987549 82.8053 0.0987549C79.9042 0.0987549 76.9807 1.19226 74.1131 3.35696C71.8703 5.05301 69.6498 7.41855 67.5297 10.3755C65.0526 13.8234 63.3008 17.2266 62.4193 19.0789C61.5378 17.2266 59.7859 13.8234 57.3088 10.3755C55.1887 7.41855 52.9683 5.05301 50.7254 3.35696C47.8689 1.19226 44.9455 0.0987549 42.0332 0.0987549C36.2198 0.0987549 31.4887 4.89679 31.4887 10.7883C31.4887 14.7718 33.6534 18.242 36.8446 20.0831H29.6922C27.6837 20.0831 26.0435 21.7122 26.0435 23.7319V71.8127C26.0435 73.8211 27.6726 75.4614 29.6922 75.4614H29.7034ZM55.6128 69.8823H31.6337V25.6622H55.6128V69.8823ZM57.0075 74.0666V21.4779H67.8422V74.0666H57.0075ZM37.8935 10.8218C37.8823 8.57901 39.5672 6.71558 41.7431 6.59284C45.3583 6.36968 48.9736 9.77293 51.6069 12.2501C52.0086 12.6294 52.388 12.9865 52.7562 13.3212C53.5931 14.08 55.1329 15.3855 56.7732 16.758C57.7774 17.606 58.9714 18.6102 59.9421 19.4471L42.7919 15.1735C42.1671 15.0173 41.6203 14.8388 41.1182 14.6379C38.92 13.7453 37.8935 12.529 37.8823 10.8218H37.8935ZM69.2369 25.6622H93.216V69.8823H69.2369V25.6622ZM95.1463 21.4779C96.3849 21.4779 97.4003 22.4822 97.4003 23.7319V71.8127C97.4003 73.0512 96.3961 74.0666 95.1463 74.0666H69.2369V71.2771H93.9189C94.2983 71.2771 94.6107 70.9646 94.6107 70.5852V24.9593C94.6107 24.5799 94.2983 24.2675 93.9189 24.2675H69.2369V21.4779H95.1463ZM82.8165 1.50469C87.86 1.50469 91.9662 5.67787 91.9662 10.7995C91.9662 15.9211 87.86 20.0943 82.8165 20.0943H68.11L82.3925 16.5348C83.0843 16.3674 83.698 16.1666 84.2559 15.9434C87.0008 14.8276 88.3398 13.165 88.351 10.8441C88.3733 7.85372 86.1082 5.38775 83.1847 5.20922C78.9892 4.96374 75.1062 8.59016 72.2831 11.2458C71.8814 11.6252 71.5021 11.9711 71.1562 12.2947C70.3416 13.0311 68.8018 14.3255 67.1727 15.698C66.135 16.5683 65.2869 17.2824 64.5951 17.885C67.4851 12.3505 74.247 1.51585 82.8053 1.51585L82.8165 1.50469ZM64.9076 19.4471C65.8895 18.6102 67.0722 17.606 68.0765 16.758C69.7167 15.3744 71.2566 14.08 72.0934 13.3212C72.4505 12.9977 72.841 12.6294 73.2427 12.2501C75.8091 9.85104 79.2905 6.58168 82.783 6.58168C82.8946 6.58168 83.0062 6.58168 83.1066 6.58168C85.2825 6.71558 86.9674 8.56785 86.9562 10.8106C86.9562 12.529 85.9185 13.7341 83.7203 14.6268C83.2182 14.8276 82.6714 15.0061 82.0466 15.1624L64.8964 19.436L64.9076 19.4471ZM32.8834 10.7995C32.8834 5.67787 36.9897 1.50469 42.0332 1.50469C50.5915 1.50469 57.3534 12.3393 60.2434 17.8738C59.5516 17.2824 58.7036 16.5683 57.6659 15.6868C56.0368 14.3143 54.5081 13.02 53.6824 12.2835C53.3253 11.9599 52.9571 11.614 52.5554 11.2347C49.7324 8.579 45.8493 4.95258 41.6538 5.19806C38.7415 5.36544 36.4764 7.84256 36.4876 10.833C36.4987 13.1539 37.8377 14.8165 40.5826 15.9323C41.1405 16.1554 41.7542 16.3563 42.446 16.5237L56.7286 20.0831H42.022C36.9785 20.0831 32.8723 15.91 32.8723 10.7883L32.8834 10.7995ZM27.4494 23.7319C27.4494 22.4933 28.4536 21.4779 29.7034 21.4779H55.6128V24.2675H30.9308C30.5514 24.2675 30.2389 24.5799 30.2389 24.9593V70.5741C30.2389 70.9646 30.5514 71.2659 30.9308 71.2659H55.6128V74.0555H29.7034C28.4648 74.0555 27.4494 73.0512 27.4494 71.8015V23.7319Z" fill="#FAAE32"/>
<path d="M115.878 83.2721C112.319 83.2721 109.429 86.1509 109.429 89.6992C109.429 93.2475 112.319 96.1264 115.878 96.1264C119.438 96.1264 122.328 93.2475 122.328 89.6992C122.328 86.1509 119.438 83.2721 115.878 83.2721ZM115.878 94.7316C113.089 94.7316 110.823 92.4776 110.823 89.6992C110.823 86.9208 113.089 84.6669 115.878 84.6669C118.668 84.6669 120.933 86.9208 120.933 89.6992C120.933 92.4776 118.668 94.7316 115.878 94.7316Z" fill="#FAAE32"/>
<path d="M56.2485 89.6992C56.2485 86.2067 53.3585 83.3613 49.7991 83.3613C46.2396 83.3613 43.3496 86.2067 43.3496 89.6992C43.3496 93.1917 46.2396 96.0371 49.7991 96.0371C53.3585 96.0371 56.2485 93.1917 56.2485 89.6992ZM44.7444 89.6992C44.7444 86.9766 47.0095 84.7561 49.7991 84.7561C52.5886 84.7561 54.8537 86.9766 54.8537 89.6992C54.8537 92.4218 52.5886 94.6423 49.7991 94.6423C47.0095 94.6423 44.7444 92.4218 44.7444 89.6992Z" fill="#FAAE32"/>
<path d="M119.561 52.2745C119.46 52.0067 119.204 51.817 118.913 51.817H107.208C106.829 51.817 106.517 52.1294 106.517 52.5088V64.3589C106.517 64.7382 106.829 65.0507 107.208 65.0507H123.354C123.578 65.0507 123.801 64.9391 123.923 64.7494C124.057 64.5597 124.08 64.3254 124.002 64.1134L119.561 52.2633V52.2745ZM107.9 63.6782V53.2118H118.422L122.339 63.6782H107.889H107.9Z" fill="#FAAE32"/>
<path d="M108.179 69.0007C106.862 69.0007 105.791 70.0719 105.791 71.3886C105.791 72.7053 106.862 73.7876 108.179 73.7876C109.496 73.7876 110.567 72.7164 110.567 71.3886C110.567 70.0608 109.496 69.0007 108.179 69.0007ZM108.179 72.3928C107.632 72.3928 107.175 71.9465 107.175 71.3886C107.175 70.8307 107.621 70.3843 108.179 70.3843C108.737 70.3843 109.183 70.8307 109.183 71.3886C109.183 71.9465 108.737 72.3928 108.179 72.3928Z" fill="#FAAE32"/>
<path d="M132.593 88.3156V82.9485C132.593 81.7992 131.656 80.873 130.518 80.873C130.317 80.873 130.15 80.7057 130.15 80.5048V74.1558C130.15 70.5628 129.502 67.0368 128.219 63.6782L122.707 49.2172C122.283 48.0902 121.178 47.3314 119.973 47.3314H104.53C102.924 47.3314 101.607 48.6481 101.607 50.2549V89.1524C101.607 89.8331 102.165 90.391 102.845 90.391C103.526 90.391 104.051 89.8666 104.084 89.2082C104.363 82.8592 109.563 77.8826 115.923 77.8826C122.283 77.8826 127.338 82.7476 127.751 88.9516C127.806 89.7661 128.476 90.391 129.29 90.391H130.529C131.678 90.391 132.604 89.4537 132.604 88.3156H132.593ZM131.199 88.3156C131.199 88.695 130.886 88.9962 130.518 88.9962H129.279C129.201 88.9962 129.134 88.9293 129.134 88.8512C128.677 81.9108 122.875 76.4879 115.923 76.4879C109.63 76.4879 104.341 80.8507 103.002 86.7869V50.2549C103.002 49.4068 103.694 48.7262 104.53 48.7262H119.973C120.609 48.7262 121.178 49.1167 121.402 49.7081L126.914 64.1692C128.13 67.3716 128.755 70.7302 128.755 74.1446V80.4937C128.755 81.4644 129.547 82.2567 130.518 82.2567C130.897 82.2567 131.199 82.5579 131.199 82.9373V88.3044V88.3156Z" fill="#FAAE32"/>
<path d="M103.85 44.4973H115.901C116.76 44.4973 117.53 44.0175 117.909 43.2475C118.288 42.4776 118.199 41.5738 117.664 40.8932C117.652 40.8708 117.63 40.8485 117.608 40.8374L105.579 28.5187C104.977 27.7711 104.017 27.5033 103.113 27.8046C102.198 28.117 101.596 28.9539 101.596 29.9246V42.2656C101.596 43.5042 102.6 44.5084 103.838 44.5084L103.85 44.4973ZM103.002 29.9135C103.002 29.3556 103.437 29.1547 103.571 29.1101C103.626 29.0878 103.738 29.0654 103.861 29.0654C104.051 29.0654 104.307 29.1324 104.508 29.4002C104.519 29.4225 104.541 29.4448 104.564 29.456L116.581 41.7747C116.771 42.0313 116.793 42.3549 116.648 42.6338C116.503 42.9351 116.224 43.1136 115.889 43.1136H103.838C103.37 43.1136 102.99 42.7343 102.99 42.2656V29.9246L103.002 29.9135Z" fill="#FAAE32"/>
<path d="M106.773 39.6212H108.949C109.206 39.6212 109.328 39.3199 109.15 39.1302L106.974 36.8986C106.795 36.72 106.483 36.8428 106.483 37.0994V39.3311C106.483 39.4873 106.606 39.6212 106.773 39.6212Z" fill="#FAAE32"/>
<path d="M4.42982 23.5533H0.69181C0.31243 23.5533 0 23.8658 0 24.2452C0 24.6245 0.31243 24.937 0.69181 24.937H4.41866C4.79804 24.937 5.11047 24.6245 5.11047 24.2452C5.11047 23.8658 4.79804 23.5533 4.41866 23.5533H4.42982Z" fill="#FAAE32"/>
<path d="M8.05607 24.9481H20.5756C20.955 24.9481 21.2674 24.6356 21.2674 24.2563C21.2674 23.8769 20.955 23.5645 20.5756 23.5645H8.05607C7.67669 23.5645 7.36426 23.8769 7.36426 24.2563C7.36426 24.6356 7.67669 24.9481 8.05607 24.9481Z" fill="#FAAE32"/>
<path d="M14.4836 28.1059C14.4836 27.7153 14.1711 27.4141 13.7918 27.4141H6.22648C5.8471 27.4141 5.53467 27.7265 5.53467 28.1059C5.53467 28.4853 5.8471 28.7977 6.22648 28.7977H13.7918C14.1711 28.7977 14.4836 28.4853 14.4836 28.1059Z" fill="#FAAE32"/>
<path d="M20.5757 27.4141H17.4291C17.0497 27.4141 16.7373 27.7265 16.7373 28.1059C16.7373 28.4853 17.0497 28.7977 17.4291 28.7977H20.5757C20.9551 28.7977 21.2675 28.4853 21.2675 28.1059C21.2675 27.7265 20.9551 27.4141 20.5757 27.4141Z" fill="#FAAE32"/>
<path d="M21.2789 31.9666C21.2789 31.5872 20.9665 31.2748 20.5871 31.2748H12.5644C12.185 31.2748 11.8726 31.5872 11.8726 31.9666C11.8726 32.346 12.185 32.6584 12.5644 32.6584H20.5871C20.9665 32.6584 21.2789 32.346 21.2789 31.9666Z" fill="#FAAE32"/>
<path d="M11.0019 79.6122C10.6225 79.6122 10.3101 79.9246 10.3101 80.304C10.3101 80.6834 10.6225 80.9958 11.0019 80.9958H18.5671C18.9465 80.9958 19.259 80.6834 19.259 80.304C19.259 79.9246 18.9465 79.6122 18.5671 79.6122H11.0019Z" fill="#FAAE32"/>
<path d="M22.2162 81.007H25.3628C25.7422 81.007 26.0547 80.6946 26.0547 80.3152C26.0547 79.9358 25.7422 79.6234 25.3628 79.6234H22.2162C21.8368 79.6234 21.5244 79.9358 21.5244 80.3152C21.5244 80.6946 21.8368 81.007 22.2162 81.007Z" fill="#FAAE32"/>
<path d="M26.0656 84.1759C26.0656 83.7966 25.7531 83.4841 25.3738 83.4841H17.351C16.9716 83.4841 16.6592 83.7966 16.6592 84.1759C16.6592 84.5553 16.9716 84.8677 17.351 84.8677H25.3738C25.7531 84.8677 26.0656 84.5553 26.0656 84.1759Z" fill="#FAAE32"/>
<path d="M14.7845 98.7151H8.05607C7.67669 98.7151 7.36426 99.0275 7.36426 99.4069C7.36426 99.7863 7.67669 100.099 8.05607 100.099H14.7845C15.1639 100.099 15.4763 99.7863 15.4763 99.4069C15.4763 99.0275 15.1639 98.7151 14.7845 98.7151Z" fill="#FAAE32"/>
<path d="M31.9569 98.7151H19.4374C19.058 98.7151 18.7456 99.0275 18.7456 99.4069C18.7456 99.7863 19.058 100.099 19.4374 100.099H31.9569C32.3363 100.099 32.6488 99.7863 32.6488 99.4069C32.6488 99.0275 32.3363 98.7151 31.9569 98.7151Z" fill="#FAAE32"/>
<path d="M126.579 98.715H121.078C124.213 96.9185 126.322 93.5599 126.322 89.6992C126.322 83.9638 121.636 79.2997 115.867 79.2997C110.098 79.2997 105.412 83.9638 105.412 89.6992C105.412 93.5488 107.532 96.9074 110.656 98.715H54.7644C57.8218 97.0859 59.9418 93.9951 60.1985 90.4021H62.6644C62.7425 92.3325 64.3382 93.8723 66.2797 93.8723H95.1349C97.1322 93.8723 98.7613 92.2432 98.7613 90.2459V81.7434C98.7613 79.746 97.1322 78.1169 95.1349 78.1169H66.2797C64.2824 78.1169 62.6533 79.746 62.6533 81.7434V82.2232H56.8956C55.0322 80.5048 52.5216 79.4559 49.7767 79.4559C47.0318 79.4559 44.5212 80.516 42.6577 82.2232H36.4314V81.9888C36.4314 80.6833 35.3714 79.6121 34.0547 79.6121H32.593C31.2875 79.6121 30.2163 80.6722 30.2163 81.9888V90.6253C30.2163 91.9308 31.2763 93.002 32.593 93.002H34.0547C35.3603 93.002 36.4314 91.942 36.4314 90.6253V90.391H39.3661C39.6115 93.9839 41.7428 97.0748 44.8001 98.7039H36.61C36.2306 98.7039 35.9182 99.0163 35.9182 99.3957C35.9182 99.7751 36.2306 100.087 36.61 100.087H126.568C126.947 100.087 127.259 99.7751 127.259 99.3957C127.259 99.0163 126.947 98.7039 126.568 98.7039L126.579 98.715ZM64.0704 81.7434C64.0704 80.516 65.0746 79.5117 66.302 79.5117H95.1572C96.3846 79.5117 97.3888 80.516 97.3888 81.7434V90.2459C97.3888 91.4733 96.3846 92.4776 95.1572 92.4776H66.302C65.0746 92.4776 64.0704 91.4733 64.0704 90.2459V81.7434ZM62.6756 89.0074H60.2096C60.0757 86.9989 59.3393 85.1466 58.1788 83.6179H62.6644V89.0074H62.6756ZM35.059 90.6253C35.059 91.1609 34.6238 91.6072 34.0771 91.6072H32.6153C32.0797 91.6072 31.6334 91.1721 31.6334 90.6253V81.9888C31.6334 81.4532 32.0686 81.0069 32.6153 81.0069H34.0771C34.6127 81.0069 35.059 81.4421 35.059 81.9888V90.6253ZM36.4538 83.6068H41.4192C40.2587 85.1355 39.5334 86.9877 39.3884 88.9962H36.4538V83.6068ZM40.7385 89.6992C40.7385 84.8119 44.8001 80.8395 49.799 80.8395C54.7979 80.8395 58.8595 84.8119 58.8595 89.6992C58.8595 94.5865 54.7979 98.5588 49.799 98.5588C44.8001 98.5588 40.7385 94.5865 40.7385 89.6992ZM106.818 89.6992C106.818 84.7338 110.879 80.6833 115.878 80.6833C120.877 80.6833 124.938 84.7226 124.938 89.6992C124.938 94.6757 120.877 98.715 115.878 98.715C110.879 98.715 106.818 94.6757 106.818 89.6992Z" fill="#FAAE32"/>
<path d="M136.577 98.7151H131.901C131.522 98.7151 131.209 99.0275 131.209 99.4069C131.209 99.7863 131.522 100.099 131.901 100.099H136.577C136.956 100.099 137.268 99.7863 137.268 99.4069C137.268 99.0275 136.956 98.7151 136.577 98.7151Z" fill="#FAAE32"/>
<path d="M89.567 89.1302C91.2966 89.1302 92.7136 87.7242 92.7136 85.9835C92.7136 84.2428 91.3077 82.8369 89.567 82.8369C87.8263 82.8369 86.4204 84.2428 86.4204 85.9835C86.4204 87.7242 87.8263 89.1302 89.567 89.1302ZM89.567 84.2429C90.5266 84.2429 91.3189 85.0239 91.3189 85.9947C91.3189 86.9655 90.5378 87.7465 89.567 87.7465C88.5963 87.7465 87.8152 86.9655 87.8152 85.9947C87.8152 85.0239 88.5963 84.2429 89.567 84.2429Z" fill="#FAAE32"/>
<path d="M69.4599 89.1302H83.5973C83.9767 89.1302 84.2892 88.8177 84.2892 88.4384V83.5511C84.2892 83.1717 83.9767 82.8593 83.5973 82.8593H69.4599C69.0805 82.8593 68.7681 83.1717 68.7681 83.5511V88.4384C68.7681 88.8289 69.0805 89.1302 69.4599 89.1302ZM70.1517 84.2429H82.8944V87.7354H70.1517V84.2429Z" fill="#FAAE32"/>
<path d="M51.1606 89.6992C51.1606 88.9516 50.5469 88.3379 49.7993 88.3379C49.0517 88.3379 48.438 88.9516 48.438 89.6992C48.438 90.4468 49.0517 91.0605 49.7993 91.0605C50.5469 91.0605 51.1606 90.4468 51.1606 89.6992ZM49.7993 89.6657C49.7993 89.6657 49.8328 89.6769 49.8328 89.6992C49.8328 89.7327 49.7658 89.7327 49.7658 89.6992C49.7658 89.6769 49.777 89.6657 49.7993 89.6657Z" fill="#FAAE32"/>
<path d="M115.878 88.3379C115.13 88.3379 114.517 88.9516 114.517 89.6992C114.517 90.4468 115.13 91.0605 115.878 91.0605C116.626 91.0605 117.239 90.4468 117.239 89.6992C117.239 88.9516 116.626 88.3379 115.878 88.3379ZM115.844 89.6992C115.844 89.6992 115.856 89.6657 115.878 89.6657C115.9 89.6657 115.911 89.6769 115.911 89.6992C115.911 89.7327 115.844 89.7327 115.844 89.6992Z" fill="#FAAE32"/>
</g>
<defs>
<clipPath id="clip0_6013_8750">
<rect width="137.268" height="100" fill="white" transform="translate(0 0.109863)"/>
</clipPath>
</defs>
</svg>
